<svg width="40" height="39" fill="none" xmlns="http://www.w3.org/2000/svg"><path d="M20 0a2 2 0 011.789 1.106l5.158 10.315 11.34 1.65a2 2 0 011.11 3.411l-8.255 8.048 1.857 11.347a2 2 0 01-2.911 2.09L20 32.614 9.912 37.967a2 2 0 01-2.91-2.09L8.857 24.53.604 16.482a2 2 0 011.108-3.411l11.341-1.65 5.158-10.315A2 2 0 0120 0zm0 6.472l-3.836 7.672a2 2 0 01-1.501 1.085l-8.366 1.217 6.1 5.947a2 2 0 01.577 1.755L11.6 32.543l7.463-3.96a2 2 0 011.874 0l7.463 3.96-1.374-8.395a2 2 0 01.578-1.755l6.1-5.947-8.367-1.217a2 2 0 01-1.5-1.085L20 6.472z" fill="#142251"/></svg>