<svg width="243" height="33" fill="none" xmlns="http://www.w3.org/2000/svg"><path d="M48.013 27.636l8.066-22.018h4.856l8.073 22.018H65.17l-1.968-5.44h-9.514l-1.937 5.44h-3.738zm6.725-8.51h7.383l-3.608-10.02h-.161l-3.614 10.02zm19.982 8.51V5.624h7.384c1.9 0 3.46.09 4.676.272 1.211.182 2.167.51 2.87.976.7.472 1.21 1.12 1.527 1.95.316.83.521 1.89.608 3.168.087 1.278.13 2.829.13 4.64 0 1.811-.043 3.362-.13 4.64-.087 1.278-.291 2.338-.608 3.168-.317.83-.826 1.484-1.528 1.95-.702.467-1.658.794-2.869.975-1.21.182-2.77.273-4.676.273h-7.383zm3.708-3.07h3.347a46.04 46.04 0 003.037-.08c.795-.054 1.428-.2 1.888-.448.459-.248.8-.648 1.018-1.2.217-.556.354-1.338.41-2.35.056-1.011.08-2.295.08-3.858 0-1.557-.024-2.835-.08-3.84-.056-1-.199-1.787-.429-2.35-.23-.564-.577-.97-1.05-1.218-.471-.248-1.098-.394-1.887-.448a44.985 44.985 0 00-2.987-.079h-3.347v15.87zm20.759 3.07V5.624h10.532c1.422 0 2.571.157 3.447.478.875.321 1.527.782 1.968 1.394.435.605.733 1.332.888 2.174.155.842.23 1.763.23 2.768 0 .727-.068 1.52-.211 2.387a6.018 6.018 0 01-.919 2.368c-.472.715-1.211 1.23-2.217 1.551l3.707 8.898h-3.937l-3.608-8.995.95.479a1.47 1.47 0 01-.54.109 12.9 12.9 0 01-.739.018h-5.837v8.383h-3.714zm3.708-11.454h5.247c1.025 0 1.838-.067 2.428-.206.59-.14 1.025-.358 1.31-.654.286-.297.466-.685.54-1.151.075-.467.118-1.048.118-1.727 0-.702-.037-1.296-.118-1.774-.074-.479-.248-.867-.509-1.151-.261-.285-.683-.497-1.26-.624-.578-.127-1.373-.194-2.379-.194h-5.377v7.48zm18.244 11.454l8.067-22.018h4.856l8.072 22.018h-3.837l-1.969-5.44h-9.513l-1.938 5.44h-3.738zm6.725-8.51h7.384l-3.608-10.02h-.162l-3.614 10.02zm27.162 8.764c-.807 0-1.702-.018-2.67-.066a83.054 83.054 0 01-2.857-.176 77.592 77.592 0 01-2.54-.242v-2.974c.789.066 1.615.127 2.478.194a64.15 64.15 0 004.515.194c1.161 0 2.067-.055 2.719-.158.659-.11 1.18-.279 1.578-.515.261-.17.453-.381.571-.642.118-.254.199-.557.23-.915.031-.35.049-.739.049-1.169 0-.575-.024-1.054-.068-1.441-.043-.382-.143-.685-.298-.897-.155-.212-.391-.37-.72-.466a8.39 8.39 0 00-1.279-.242l-5.378-.612c-1.05-.128-1.907-.346-2.577-.655-.665-.308-1.18-.72-1.54-1.23-.36-.508-.609-1.12-.739-1.822a12.805 12.805 0 01-.199-2.338c0-1.43.199-2.563.59-3.393.391-.83.956-1.465 1.689-1.902.733-.436 1.602-.726 2.608-.866a24.573 24.573 0 013.347-.206c.851 0 1.727.025 2.627.08a68.18 68.18 0 012.54.193c.801.073 1.459.176 1.987.303V8.84a27.064 27.064 0 00-1.919-.224 43.636 43.636 0 00-2.279-.145 57.803 57.803 0 00-2.198-.049c-1.136 0-2.049.049-2.739.146-.689.097-1.217.248-1.589.466-.441.236-.702.557-.789.975-.087.418-.13.933-.13 1.551 0 .727.049 1.284.149 1.678.099.394.329.666.689.818.36.151.913.266 1.658.351l5.384.612c.677.066 1.291.163 1.838.303.546.139 1.031.37 1.459.69.429.321.758.782 1 1.375.155.297.267.642.348 1.024.074.381.143.805.198 1.266.056.46.081.975.081 1.55 0 1.218-.124 2.23-.379 3.041-.254.812-.602 1.454-1.049 1.939-.447.478-1 .841-1.658 1.09a8.259 8.259 0 01-2.167.478 26.27 26.27 0 01-2.571.116zm19.418-.254V8.786h-6.856V5.618h17.388v3.168h-6.825v18.85h-3.707zm16.338-22.012h15.028v3.071h-11.315v6.306h9.775v3.07h-9.775v6.5h11.315v3.071h-15.028V5.624zm21.846 0h3.707v22.018h-3.707V5.624zm9.383 22.012l8.066-22.018h4.857L243 27.636h-3.838l-1.968-5.44h-9.507l-1.938 5.44h-3.738zm6.725-8.51h7.384l-3.608-10.02h-.162l-3.614 10.02zM37.737 32.787h-5.848c-.43 0-.777-.335-.777-.748 0-.412.348-.747.777-.747h4.523l-3.683-6.339-4.164 7.439a.788.788 0 01-.684.395h-3.909a.786.786 0 01-.67-.367.726.726 0 01-.014-.74l6.628-11.647-.825-1.508-4.367 7.406a.79.79 0 01-1.059.281.73.73 0 01-.292-1.017l5.07-8.598a.782.782 0 01.678-.381h.01a.782.782 0 01.678.398l1.68 3.078a.713.713 0 01-.007.704l-6.2 10.893h2.132l4.616-8.246a.783.783 0 01.677-.395h.007a.78.78 0 01.678.384l5.022 8.641a.724.724 0 01-.007.744.782.782 0 01-.67.37z" fill="#142251"/><path d="M20.105 33h-3.161a.786.786 0 01-.67-.366.718.718 0 01-.011-.74L26.5 14.08l-.858-1.643-2.643 4.468a.793.793 0 01-1.059.281.73.73 0 01-.292-1.017l3.36-5.685c.141-.239.4-.374.696-.377a.777.777 0 01.674.412l1.695 3.245c.115.22.111.48-.015.697l-9.8 17.047h1.391l1.832-3.109a.79.79 0 011.059-.28.73.73 0 01.292 1.017l-2.058 3.49a.762.762 0 01-.67.373z" fill="#142251"/><path d="M13.158 32.787H9.26a.78.78 0 01-.67-.37.724.724 0 01-.007-.744l4.178-7.125a.794.794 0 011.06-.285.732.732 0 01.295 1.017l-3.523 6.009h2.117l7.435-12.572a.793.793 0 011.059-.281.73.73 0 01.292 1.017L13.84 32.406a.794.794 0 01-.681.38z" fill="#142251"/><path d="M14.979 23.029a.818.818 0 01-.382-.097.732.732 0 01-.296-1.017l8.402-14.33-.785-1.422-4.375 7.154a.8.8 0 01-1.066.266.733.733 0 01-.277-1.02l5.082-8.307a.797.797 0 011.358.025l1.636 2.963a.713.713 0 01-.011.719l-8.61 14.685a.78.78 0 01-.676.38z" fill="#142251"/><path d="M5.193 32.787H.777a.782.782 0 01-.673-.374.714.714 0 01.003-.747l5.43-8.972a.796.796 0 011.062-.27c.37.206.496.665.281 1.02l-4.752 7.848h2.62l9.56-15.595a.796.796 0 011.066-.264c.37.21.493.67.274 1.025L5.863 32.424a.787.787 0 01-.67.363zm4.648-14.974a.766.766 0 01-.388-.103.733.733 0 01-.282-1.02l5.504-9.094a.796.796 0 011.062-.27c.37.206.496.665.281 1.02l-5.503 9.094a.785.785 0 01-.674.373zm7.177-11.857a.766.766 0 01-.389-.103.733.733 0 01-.281-1.02L19.05.37A.796.796 0 0120.112.1c.37.206.496.665.281 1.02l-2.701 4.462a.781.781 0 01-.674.373z" fill="#142251"/></svg>