<svg width="40" height="50" fill="none" xmlns="http://www.w3.org/2000/svg"><circle cx="10" cy="44" r="4" fill="#142251"/><ellipse cx="19.505" cy="25.713" rx="11.5" ry="8" transform="rotate(25.844 19.505 25.713)" fill="#AFB4C4"/><path d="M29.405 30.508c-.872 1.8-2.732 2.969-5.126 3.347-2.391.378-5.266-.047-8.044-1.392-2.777-1.346-4.893-3.338-6.079-5.449-1.187-2.113-1.423-4.297-.55-6.096.87-1.8 2.731-2.969 5.124-3.347 2.392-.378 5.267.046 8.044 1.392 2.778 1.345 4.893 3.338 6.08 5.448 1.186 2.113 1.422 4.297.55 6.097z" stroke="#142251" stroke-opacity=".44"/><mask id="a" fill="#fff"><path fill-rule="evenodd" clip-rule="evenodd" d="M28.814 19.11l-9.9-4.795-4.233 8.739a2.022 2.022 0 00-.035.072l-.185.382.05.024c-.343 1.584 1.192 3.672 3.685 4.88 2.494 1.208 5.085 1.118 6.115-.133l.05.024 4.453-9.193z"/></mask><path fill-rule="evenodd" clip-rule="evenodd" d="M28.814 19.11l-9.9-4.795-4.233 8.739a2.022 2.022 0 00-.035.072l-.185.382.05.024c-.343 1.584 1.192 3.672 3.685 4.88 2.494 1.208 5.085 1.118 6.115-.133l.05.024 4.453-9.193z" fill="#AFB4C4"/><path d="M18.914 14.315l.436-.9-.9-.436-.436.9.9.436zm9.9 4.795l.9.436.436-.9-.9-.436-.436.9zM14.68 23.054l.891.454.005-.009.004-.01-.9-.435zm-.035.072l.9.436.005-.009.004-.01-.909-.417zm-.185.382l-.9-.436-.435.9.9.436.435-.9zm.05.024l.977.212.167-.77-.708-.342-.436.9zm9.8 4.747l.436-.9-.709-.343-.5.607.773.636zm.05.024l-.436.9.9.436.436-.9-.9-.436zm-5.883-13.088l9.9 4.795.872-1.8-9.9-4.795-.872 1.8zM15.58 23.49l4.233-8.739-1.8-.872-4.233 8.739 1.8.872zm-.018.036l.01-.018-1.783-.909-.027.055 1.8.872zm-.008.018a.94.94 0 01.008-.018l-1.8-.872a3.94 3.94 0 00-.026.055l1.818.835zm-.194.4l.185-.382-1.8-.872-.185.382 1.8.872zm-.414-1.312l-.05-.024-.872 1.8.05.024.872-1.8zm3.685 4.88c-1.123-.544-1.998-1.272-2.542-1.998-.559-.747-.688-1.37-.602-1.77l-1.954-.424c-.257 1.184.21 2.397.955 3.393.761 1.015 1.901 1.936 3.271 2.6l.872-1.8zm4.906.131c-.26.316-.829.601-1.761.625-.908.023-2.021-.211-3.145-.756l-.872 1.8c1.37.664 2.8.988 4.068.955 1.244-.032 2.485-.417 3.255-1.353l-1.544-1.27zm1.26-.24l-.051-.024-.872 1.8.05.024.872-1.8zm3.116-8.729l-4.453 9.193 1.8.872 4.453-9.193-1.8-.872z" fill="#142251" fill-opacity=".44" mask="url(#a)"/><ellipse cx="26.263" cy="11.763" rx="9.5" ry="7.5" transform="rotate(25.844 26.263 11.763)" fill="#AFB4C4"/><path d="M34.363 15.686c-1.64 3.386-6.573 4.595-11.152 2.377-4.578-2.218-6.688-6.837-5.048-10.223 1.64-3.386 6.573-4.595 11.151-2.377 4.579 2.218 6.689 6.837 5.049 10.223z" stroke="#142251" stroke-opacity=".44"/><g filter="url(#filter0_f_344_67)"><ellipse cx="23.549" cy="9.337" rx="4" ry="3.5" transform="rotate(25.844 23.549 9.337)" fill="#E4E7F1"/></g><path fill="#9DA7CA" d="M14.668 32.258l1.8.872-5.667 11.7-1.8-.872z"/><defs><filter id="filter0_f_344_67" x="15.638" y="1.736" width="15.822" height="15.202" filterUnits="userSpaceOnUse" color-interpolation-filters="sRGB"><feFlood flood-opacity="0" result="BackgroundImageFix"/><feBlend in="SourceGraphic" in2="BackgroundImageFix" result="shape"/><feGaussianBlur stdDeviation="2" result="effect1_foregroundBlur_344_67"/></filter></defs></svg>