<svg width="19" height="21" fill="none" xmlns="http://www.w3.org/2000/svg"><path d="M12.684.537a1 1 0 011.384-.294l3.558 2.31a1 1 0 01.294 1.384L10.988 14.61a1 1 0 01-.631.434l-2.934.623a1 1 0 01-1.186-.77l-.624-2.934a1 1 0 01.14-.753L12.683.537zM7.655 11.953l.33 1.551 1.551-.33 6.162-9.488-1.88-1.221-6.163 9.488zM.453 6.927a2 2 0 011.54-2.373l4.89-1.04A1 1 0 117.3 5.472l-4.891 1.04 2.495 11.737 11.738-2.495-1.04-4.89a1 1 0 111.956-.416l1.04 4.89a2 2 0 01-1.54 2.373L5.32 20.205a2 2 0 01-2.372-1.54L.453 6.926z" fill="#142251"/></svg>