<svg width="418" height="457" fill="none" xmlns="http://www.w3.org/2000/svg"><rect x="111.696" y=".624" width="319" height="379" rx="11.5" transform="rotate(16.963 111.696 .624)" fill="#fff" stroke="#989EB1"/><mask id="a" style="mask-type:alpha" maskUnits="userSpaceOnUse" x="43" y="29" width="348" height="344"><rect x="121.188" y="26.028" width="284.602" height="278.116" rx="12" transform="rotate(16.963 121.188 26.028)" fill="#E4E7F1"/></mask><g mask="url(#a)"><path d="M190.468 226.116c4.606 23.032 16.886 74.498 23.12 100.347 2.082 8.642-3.007 17.384-11.551 19.85-9.061 2.615-18.479-2.83-20.736-11.986l-24.918-101.061c-2.148-9.795 4.4-19.377 14.31-20.932 9.223-1.449 17.945 4.627 19.775 13.782z" fill="#F2F3F8"/><path d="M213.617 326.361l21.243 86.798-32.263 8.812-21.622-88.761c-2.057-9.38 4.217-18.556 13.703-20.048 8.834-1.385 17.186 4.432 18.939 13.199zm-66.075-128.466l-16.792.24-16.346-.24-32.336 14.79 3.996 129.218h89.818l.456-129.558-28.796-14.45z" fill="#F2F3F8"/><path d="M134.33 234.038a1.907 1.907 0 11-3.815.001 1.907 1.907 0 013.815-.001zm0 22.593a1.906 1.906 0 11-3.814 0 1.906 1.906 0 113.814 0zm0 22.594a1.906 1.906 0 11-3.814 0 1.906 1.906 0 113.814 0zm0 22.591a1.906 1.906 0 11-3.814 0 1.906 1.906 0 113.814 0zm0 22.595a1.906 1.906 0 11-3.814 0 1.906 1.906 0 113.814 0zm-64.938-98.295c-4.606 23.032-16.885 74.498-23.117 100.347-2.085 8.642 3.006 17.384 11.548 19.85 9.061 2.615 18.48-2.83 20.739-11.986l24.915-101.061c2.149-9.795-4.4-19.377-14.307-20.932-9.223-1.449-17.946 4.627-19.778 13.782z" fill="#F2F3F8"/><path d="M46.243 326.361L25 413.159l32.264 8.812 21.621-88.761c2.057-9.38-4.214-18.556-13.703-20.048-8.833-1.385-17.186 4.432-18.939 13.199zm133.53 64.666H85.151l.913-49.124h89.482l4.227 49.124z" fill="#F2F3F8"/><path d="M84.932 390.439L82.05 503.897c-.344 10.25 7.874 18.747 18.131 18.747 9.284 0 17.071-7.012 18.041-16.248l11.406-112.865c1.389-13.233-8.987-24.756-22.292-24.756-12.086 0-21.998 9.585-22.403 21.664zm94.68 0l4.921 113.458c.345 10.25-7.874 18.747-18.128 18.747-9.287 0-17.073-7.012-18.043-16.248l-13.444-112.865c-1.389-13.233 8.986-24.756 22.292-24.756 12.086 0 21.998 9.585 22.402 21.664zM154.59 193.91h-8.412l2.993 7.1 5.419-7.1z" fill="#F2F3F8"/><path d="M133.649 218.309c-9.716 0-17.594-7.878-17.594-17.594v-37.444h35.188v37.444c0 9.716-7.878 17.594-17.594 17.594z" fill="#F2F3F8"/><path d="M137.306 218.309l-10.557-14.677a19.616 19.616 0 00-5.74-6.157l-4.389-3.038a2.994 2.994 0 00-3.148-.151l-4.428 2.468c-1.021.57-1.589 1.678-1.438 2.81l1.821 13.701c.177 1.351 1.894 1.898 2.866.915l9.689-9.804a1.254 1.254 0 011.902.149l13.422 16.222v-2.438zm.001.008l16.635-23.879c.463-.66.485-.702 1.295-.151l3.617 2.465c.836.571 1.3 1.679 1.176 2.813l.551 13.699c-.146 1.353-1.548 1.9-2.344.915l-7.076-9.753c-.441-.547-1.194-.472-1.555.149l-12.299 16.18v-2.438zm26.208-101.803c-1.408-5.22-4.715-12.588-16.524-18.083-19.509-9.08-29.783 10.203-29.783 10.203-5.257-.572-9.625 1.277-12.129 6.334-2.347 4.738-.049 13.648.662 16.75l4.276 19.679 3.755-18.718c3.689-12.312 9.299-17.326 9.299-17.326l17.829-1.449 18.905 35.701 3.678-21.126c.468-2.68.662-5.41.513-8.127-.085-1.572-.238-2.938-.481-3.838z" fill="#F2F3F8"/><path d="M156.517 145.283s2.378-3.781 7.285-1.92c4.903 1.86 2.687 13.773-4.673 15.289 0 0-2.638.577-4.705-1.228 0 0 1.809-8.801 2.093-12.141zm-45.857-.134s-2.905-3.709-7.565-1.789c-4.847 2.002-2.684 13.774 4.674 15.293 0 0 2.638.575 4.706-1.229 0 0-1.532-8.935-1.815-12.275z" fill="#F2F3F8"/><path d="M104.072 147.565s4.108-1.374 7.026 4.681l-7.026-4.681z" fill="#F2F3F8"/><path d="M109.103 149.283s-4.473 2.391-1.517 5.985l1.517-5.985zm51.984-15.304c.002 7.18-.704 22.207-5.119 31.125-4.144 8.372-11.001 12.88-19.99 13.148-8.986.268-15.684-3.197-21.049-14.065-5.368-10.865-5.111-30.074-5.111-30.074s0-25.655 25.356-25.655c26.706 0 25.913 25.521 25.913 25.521z" fill="#F2F3F8"/><path d="M143.983 140.996v11.455c0 .255-.049.499-.139.725-.351.879-1.363 1.3-2.278 1.055l-1.97-.523m-6.645-11.786a2.393 2.393 0 11-4.785.001 2.393 2.393 0 014.785-.001zm2.415-5.759l.087-4.549-8.436.151a4.663 4.663 0 00-2.908 1.087l-4.88 4.096 7.11-1.06 9.027.275zm13.372 5.76a2.394 2.394 0 104.787 0 2.394 2.394 0 00-4.787 0zm-1.51-5.763l-.021-4.547 6.657.066c.84.009 1.647.381 2.283 1.058l3.81 4.042-5.602-.987-7.127.368zm-7.091 22.366c-1.024.555-1.896.868-2.875 1.17-.957.285-1.938.479-2.925.583a13.137 13.137 0 01-5.827-.655.724.724 0 01-.443-.926.724.724 0 01.792-.476l.025.004a11.18 11.18 0 004.985-.372c.798-.241 1.57-.553 2.304-.934.713-.368 1.483-.851 1.991-1.277a1.755 1.755 0 111.973 2.883zm5.518-2.732c.406.398 1.061.868 1.661 1.224.624.368 1.283.674 1.968.91a8.484 8.484 0 004.334.349l.026-.004a.678.678 0 01.37 1.3 10.324 10.324 0 01-5.234.612 13.124 13.124 0 01-2.612-.623c-.866-.313-1.63-.632-2.524-1.189a1.645 1.645 0 112.011-2.579zm-6.985 9.755s2.425.872 5.897 0h-5.897z" fill="#F2F3F8"/><path d="M281.468 226.116c4.606 23.032 16.886 74.498 23.12 100.347 2.082 8.642-3.007 17.384-11.551 19.85-9.061 2.615-18.479-2.83-20.736-11.986l-24.918-101.061c-2.148-9.795 4.4-19.377 14.31-20.932 9.223-1.449 17.945 4.627 19.775 13.782z" fill="#142251"/><path d="M304.617 326.361l21.243 86.798-32.263 8.812-21.622-88.761c-2.057-9.38 4.217-18.556 13.703-20.048 8.834-1.385 17.186 4.432 18.939 13.199zm-66.075-128.466l-16.792.24-16.346-.24-32.336 14.79 3.996 129.218h89.818l.456-129.558-28.796-14.45z" fill="#142251"/><path d="M225.33 234.038a1.907 1.907 0 11-3.815.001 1.907 1.907 0 013.815-.001zm0 22.593a1.906 1.906 0 11-3.814 0 1.906 1.906 0 113.814 0zm0 22.594a1.906 1.906 0 11-3.814 0 1.906 1.906 0 113.814 0zm0 22.591a1.906 1.906 0 11-3.814 0 1.906 1.906 0 113.814 0zm0 22.595a1.906 1.906 0 11-3.814 0 1.906 1.906 0 113.814 0zm-64.938-98.295c-4.606 23.032-16.886 74.498-23.117 100.347-2.085 8.642 3.006 17.384 11.548 19.85 9.061 2.615 18.48-2.83 20.739-11.986l24.915-101.061c2.149-9.795-4.4-19.377-14.307-20.932-9.223-1.449-17.946 4.627-19.778 13.782z" fill="#142251"/><path d="M137.243 326.361L116 413.159l32.263 8.812 21.622-88.761c2.057-9.38-4.214-18.556-13.703-20.048-8.833-1.385-17.186 4.432-18.939 13.199zm133.53 64.666h-94.622l.913-49.124h89.482l4.227 49.124z" fill="#142251"/><path d="M175.932 390.439l-2.882 113.458c-.345 10.25 7.873 18.747 18.13 18.747 9.284 0 17.071-7.012 18.041-16.248l11.406-112.865c1.389-13.233-8.987-24.756-22.292-24.756-12.087 0-21.999 9.585-22.403 21.664zm94.68 0l4.921 113.458c.345 10.25-7.874 18.747-18.128 18.747-9.287 0-17.073-7.012-18.043-16.248l-13.444-112.865c-1.389-13.233 8.986-24.756 22.292-24.756 12.086 0 21.998 9.585 22.402 21.664zM245.59 193.91h-8.412l2.993 7.1 5.419-7.1z" fill="#142251"/><path d="M224.649 218.309c-9.716 0-17.594-7.878-17.594-17.594v-37.444h35.188v37.444c0 9.716-7.878 17.594-17.594 17.594z" fill="#142251"/><path d="M228.306 218.309l-10.557-14.677a19.616 19.616 0 00-5.74-6.157l-4.389-3.038a2.994 2.994 0 00-3.148-.151l-4.428 2.468c-1.021.57-1.589 1.678-1.438 2.81l1.821 13.701c.177 1.351 1.894 1.898 2.866.915l9.689-9.804a1.254 1.254 0 011.902.149l13.422 16.222v-2.438zm.001.008l16.635-23.879c.463-.66.485-.702 1.295-.151l3.617 2.465c.836.571 1.3 1.679 1.176 2.813l.551 13.699c-.146 1.353-1.548 1.9-2.344.915l-7.076-9.753c-.441-.547-1.194-.472-1.555.149l-12.299 16.18v-2.438zm26.208-101.803c-1.408-5.22-4.715-12.588-16.524-18.083-19.509-9.08-29.783 10.203-29.783 10.203-5.257-.572-9.625 1.277-12.129 6.334-2.347 4.738-.049 13.648.662 16.75l4.276 19.679 3.755-18.718c3.689-12.312 9.299-17.326 9.299-17.326l17.829-1.449 18.905 35.701 3.678-21.126c.468-2.68.662-5.41.513-8.127-.085-1.572-.238-2.938-.481-3.838z" fill="#142251"/><path d="M247.517 145.283s2.378-3.781 7.285-1.92c4.903 1.86 2.687 13.773-4.673 15.289 0 0-2.638.577-4.705-1.228 0 0 1.809-8.801 2.093-12.141zm-45.857-.134s-2.905-3.709-7.565-1.789c-4.847 2.002-2.684 13.774 4.674 15.293 0 0 2.638.575 4.706-1.229 0 0-1.532-8.935-1.815-12.275z" fill="#142251"/><path d="M195.072 147.565s4.108-1.374 7.026 4.681l-7.026-4.681z" fill="#142251"/><path d="M200.103 149.283s-4.473 2.391-1.517 5.985l1.517-5.985zm51.984-15.304c.002 7.18-.704 22.207-5.119 31.125-4.144 8.372-11.001 12.88-19.99 13.148-8.986.268-15.684-3.197-21.049-14.065-5.368-10.865-5.111-30.074-5.111-30.074s0-25.655 25.356-25.655c26.706 0 25.913 25.521 25.913 25.521z" fill="#142251"/><path d="M234.983 140.996v11.455c0 .255-.049.499-.139.725-.351.879-1.363 1.3-2.278 1.055l-1.97-.523m-6.645-11.786a2.393 2.393 0 11-4.785.001 2.393 2.393 0 014.785-.001zm2.415-5.759l.087-4.549-8.436.151a4.663 4.663 0 00-2.908 1.087l-4.88 4.096 7.11-1.06 9.027.275zm13.372 5.76a2.394 2.394 0 104.787 0 2.394 2.394 0 00-4.787 0zm-1.51-5.763l-.021-4.547 6.657.066c.84.009 1.647.381 2.283 1.058l3.81 4.042-5.602-.987-7.127.368zm-7.091 22.366c-1.024.555-1.896.868-2.875 1.17-.957.285-1.938.479-2.925.583a13.137 13.137 0 01-5.827-.655.724.724 0 01-.443-.926.724.724 0 01.792-.476l.025.004a11.18 11.18 0 004.985-.372c.798-.241 1.57-.553 2.304-.934.713-.368 1.483-.851 1.991-1.277a1.755 1.755 0 111.973 2.883zm5.518-2.732c.406.398 1.061.868 1.661 1.224.624.368 1.283.674 1.968.91a8.484 8.484 0 004.334.349l.026-.004a.678.678 0 01.37 1.3 10.324 10.324 0 01-5.234.612 13.124 13.124 0 01-2.612-.623c-.866-.313-1.63-.632-2.524-1.189a1.645 1.645 0 112.011-2.579zm-6.985 9.755s2.425.872 5.897 0h-5.897z" fill="#142251"/><path d="M364.468 226.116c4.606 23.032 16.886 74.498 23.12 100.347 2.082 8.642-3.007 17.384-11.551 19.85-9.061 2.615-18.479-2.83-20.736-11.986l-24.918-101.061c-2.148-9.795 4.4-19.377 14.31-20.932 9.223-1.449 17.945 4.627 19.775 13.782z" fill="#E4E7F1"/><path d="M387.617 326.361l21.243 86.798-32.263 8.812-21.622-88.761c-2.057-9.38 4.217-18.556 13.703-20.048 8.834-1.385 17.186 4.432 18.939 13.199zm-66.075-128.466l-16.792.24-16.346-.24-32.336 14.79 3.996 129.218h89.818l.456-129.558-28.796-14.45z" fill="#E4E7F1"/><path d="M308.33 234.038a1.907 1.907 0 11-3.815.001 1.907 1.907 0 013.815-.001zm0 22.593a1.906 1.906 0 11-3.814 0 1.906 1.906 0 113.814 0zm0 22.594a1.906 1.906 0 11-3.814 0 1.906 1.906 0 113.814 0zm0 22.591a1.906 1.906 0 11-3.814 0 1.906 1.906 0 113.814 0zm0 22.595a1.906 1.906 0 11-3.814 0 1.906 1.906 0 113.814 0zm-64.938-98.295c-4.606 23.032-16.886 74.498-23.117 100.347-2.085 8.642 3.006 17.384 11.548 19.85 9.061 2.615 18.48-2.83 20.739-11.986l24.915-101.061c2.149-9.795-4.4-19.377-14.307-20.932-9.223-1.449-17.946 4.627-19.778 13.782z" fill="#E4E7F1"/><path d="M220.243 326.361L199 413.159l32.263 8.812 21.622-88.761c2.057-9.38-4.214-18.556-13.703-20.048-8.833-1.385-17.186 4.432-18.939 13.199zm133.53 64.666h-94.622l.913-49.124h89.482l4.227 49.124z" fill="#E4E7F1"/><path d="M258.932 390.439l-2.882 113.458c-.345 10.25 7.873 18.747 18.13 18.747 9.284 0 17.071-7.012 18.041-16.248l11.406-112.865c1.389-13.233-8.987-24.756-22.292-24.756-12.087 0-21.999 9.585-22.403 21.664zm94.68 0l4.921 113.458c.345 10.25-7.874 18.747-18.128 18.747-9.287 0-17.073-7.012-18.043-16.248l-13.444-112.865c-1.389-13.233 8.986-24.756 22.292-24.756 12.086 0 21.998 9.585 22.402 21.664zM328.59 193.91h-8.412l2.993 7.1 5.419-7.1z" fill="#E4E7F1"/><path d="M307.649 218.309c-9.716 0-17.594-7.878-17.594-17.594v-37.444h35.188v37.444c0 9.716-7.878 17.594-17.594 17.594z" fill="#E4E7F1"/><path d="M311.306 218.309l-10.557-14.677a19.616 19.616 0 00-5.74-6.157l-4.389-3.038a2.994 2.994 0 00-3.148-.151l-4.428 2.468c-1.021.57-1.589 1.678-1.438 2.81l1.821 13.701c.177 1.351 1.894 1.898 2.866.915l9.689-9.804a1.254 1.254 0 011.902.149l13.422 16.222v-2.438zm.001.008l16.635-23.879c.463-.66.485-.702 1.295-.151l3.617 2.465c.836.571 1.3 1.679 1.176 2.813l.551 13.699c-.146 1.353-1.548 1.9-2.344.915l-7.076-9.753c-.441-.547-1.194-.472-1.555.149l-12.299 16.18v-2.438zm26.208-101.803c-1.408-5.22-4.715-12.588-16.524-18.083-19.509-9.08-29.783 10.203-29.783 10.203-5.257-.572-9.625 1.277-12.129 6.334-2.347 4.738-.049 13.648.662 16.75l4.276 19.679 3.755-18.718c3.689-12.312 9.299-17.326 9.299-17.326l17.829-1.449 18.905 35.701 3.678-21.126c.468-2.68.662-5.41.513-8.127-.085-1.572-.238-2.938-.481-3.838z" fill="#E4E7F1"/><path d="M330.517 145.283s2.378-3.781 7.285-1.92c4.903 1.86 2.687 13.773-4.673 15.289 0 0-2.638.577-4.705-1.228 0 0 1.809-8.801 2.093-12.141zm-45.857-.134s-2.905-3.709-7.565-1.789c-4.847 2.002-2.684 13.774 4.674 15.293 0 0 2.638.575 4.706-1.229 0 0-1.532-8.935-1.815-12.275z" fill="#E4E7F1"/><path d="M278.072 147.565s4.108-1.374 7.026 4.681l-7.026-4.681z" fill="#E4E7F1"/><path d="M283.103 149.283s-4.473 2.391-1.517 5.985l1.517-5.985zm51.984-15.304c.002 7.18-.704 22.207-5.119 31.125-4.144 8.372-11.001 12.88-19.99 13.148-8.986.268-15.684-3.197-21.049-14.065-5.368-10.865-5.111-30.074-5.111-30.074s0-25.655 25.356-25.655c26.706 0 25.913 25.521 25.913 25.521z" fill="#E4E7F1"/><path d="M317.983 140.996v11.455c0 .255-.049.499-.139.725-.351.879-1.363 1.3-2.278 1.055l-1.97-.523m-6.645-11.786a2.393 2.393 0 11-4.785.001 2.393 2.393 0 014.785-.001zm2.415-5.759l.087-4.549-8.436.151a4.663 4.663 0 00-2.908 1.087l-4.88 4.096 7.11-1.06 9.027.275zm13.372 5.76a2.394 2.394 0 104.787 0 2.394 2.394 0 00-4.787 0zm-1.51-5.763l-.021-4.547 6.657.066c.84.009 1.647.381 2.283 1.058l3.81 4.042-5.602-.987-7.127.368zm-7.091 22.366c-1.024.555-1.896.868-2.875 1.17-.957.285-1.938.479-2.925.583a13.137 13.137 0 01-5.827-.655.724.724 0 01-.443-.926.724.724 0 01.792-.476l.025.004a11.18 11.18 0 004.985-.372c.798-.241 1.57-.553 2.304-.934.713-.368 1.483-.851 1.991-1.277a1.755 1.755 0 111.973 2.883zm5.518-2.732c.406.398 1.061.868 1.661 1.224.624.368 1.283.674 1.968.91a8.484 8.484 0 004.334.349l.026-.004a.678.678 0 01.37 1.3 10.324 10.324 0 01-5.234.612 13.124 13.124 0 01-2.612-.623c-.866-.313-1.63-.632-2.524-1.189a1.645 1.645 0 112.011-2.579zm-6.985 9.755s2.425.872 5.897 0h-5.897z" fill="#E4E7F1"/><path d="M114.04 338.519l-2.544-.775.314-1.027 2.543.776c.493.15.915.193 1.268.129.353-.063.642-.214.867-.45.229-.235.398-.531.507-.889.099-.327.121-.656.065-.988a1.665 1.665 0 00-.455-.896c-.251-.272-.623-.483-1.115-.633l-2.249-.686-2.589 8.487-1.262-.385 2.904-9.52 3.511 1.071c.719.219 1.289.529 1.711.929.421.4.693.859.816 1.378.124.514.1 1.053-.071 1.615-.186.61-.474 1.092-.863 1.445s-.866.567-1.432.642c-.565.071-1.207-.003-1.926-.223zm4.258 1.599l.046-.15c.155-.51.374-.96.655-1.351a3.52 3.52 0 01.99-.949 2.984 2.984 0 011.244-.449 3.296 3.296 0 011.418.132c.497.152.916.379 1.257.684.346.301.609.657.788 1.069.185.409.285.856.299 1.342.015.481-.055.976-.211 1.486l-.046.151c-.155.51-.374.96-.655 1.351a3.55 3.55 0 01-.996.947 3.113 3.113 0 01-1.245.449 3.324 3.324 0 01-1.416-.139 3.359 3.359 0 01-1.258-.677 3.167 3.167 0 01-.789-1.069 3.636 3.636 0 01-.292-1.34 4.578 4.578 0 01.211-1.487zm1.255.219l-.046.15a4.118 4.118 0 00-.181 1.039c-.011.334.029.647.122.937.097.292.25.546.461.762.211.213.485.37.82.472.332.101.642.122.932.063.295-.062.562-.188.801-.377.239-.19.447-.426.624-.711.183-.287.328-.607.436-.96l.046-.15c.106-.349.163-.692.17-1.028a2.654 2.654 0 00-.126-.946 1.892 1.892 0 00-.452-.767 1.842 1.842 0 00-.812-.476 1.859 1.859 0 00-.94-.058 1.97 1.97 0 00-.803.384 2.733 2.733 0 00-.626.716 3.987 3.987 0 00-.426.95zm10.025-3.975l-3.064 10.043-1.216-.371 3.064-10.043 1.216.371zm3.419 10.699l1.111-3.642c.085-.279.102-.539.051-.778a1.169 1.169 0 00-.349-.636c-.188-.181-.445-.321-.772-.421a2.023 2.023 0 00-.852-.088c-.259.035-.48.118-.662.248a.946.946 0 00-.357.492l-1.21-.369c.077-.253.219-.484.426-.692.206-.209.462-.376.767-.502.311-.13.657-.2 1.037-.213.386-.016.793.042 1.22.172.514.157.941.382 1.28.676.344.296.573.654.687 1.075.121.418.1.89-.061 1.418l-1.005 3.295a5.243 5.243 0 00-.17.77 3.06 3.06 0 00-.02.744l-.032.105-1.262-.385a2.326 2.326 0 01.026-.6c.037-.246.086-.469.147-.669zm1.148-3.016l-.246.854-1.222-.373a4.688 4.688 0 00-.948-.196 2.187 2.187 0 00-.754.034 1.203 1.203 0 00-.544.284 1.148 1.148 0 00-.318.525 1.316 1.316 0 00-.035.654c.045.214.151.406.318.576.173.167.407.296.704.386.37.113.721.134 1.052.064.332-.071.615-.194.849-.37.24-.175.398-.367.476-.577l.34.74a1.841 1.841 0 01-.434.532c-.203.181-.449.34-.739.475-.283.133-.6.22-.951.261a2.73 2.73 0 01-1.093-.119c-.479-.147-.871-.369-1.176-.666a2.266 2.266 0 01-.608-1.008 2.086 2.086 0 01.031-1.155c.116-.379.292-.69.528-.933.237-.247.524-.423.862-.53.339-.111.72-.157 1.143-.138.422.02.876.103 1.36.251l1.405.429zm4.624-.42l-1.819 5.963-1.21-.369 2.158-7.074 1.177.359-.306 1.121zm2.561-.476l-.35 1.122a1.875 1.875 0 00-.276-.127 3.097 3.097 0 00-.296-.104 2.018 2.018 0 00-.779-.095c-.24.022-.458.089-.654.201a1.827 1.827 0 00-.525.454 2.834 2.834 0 00-.379.656l-.4.093a5.86 5.86 0 01.491-1.165 3.45 3.45 0 01.702-.873c.268-.237.564-.395.888-.472.329-.081.686-.062 1.07.055.087.026.184.068.29.124a.943.943 0 01.218.131zm-.448 3.858l.046-.15c.155-.51.374-.961.655-1.351.282-.395.612-.712.99-.949a2.97 2.97 0 011.244-.449 3.296 3.296 0 011.418.132 3.3 3.3 0 011.257.683c.346.301.609.658.788 1.07.185.409.285.856.299 1.342.015.481-.055.976-.211 1.486l-.046.151c-.155.51-.374.96-.655 1.351-.281.39-.613.706-.996.947a3.113 3.113 0 01-1.245.449 3.324 3.324 0 01-1.416-.139 3.373 3.373 0 01-1.258-.677 3.167 3.167 0 01-.789-1.069 3.64 3.64 0 01-.292-1.34 4.578 4.578 0 01.211-1.487zm1.255.219l-.046.15a4.118 4.118 0 00-.181 1.038c-.011.335.029.648.122.938.097.292.25.546.461.762.211.213.485.37.82.472.332.101.642.122.932.063a1.91 1.91 0 00.801-.378c.239-.189.447-.426.624-.71.183-.287.328-.607.436-.96l.046-.151a3.79 3.79 0 00.17-1.027 2.654 2.654 0 00-.126-.946 1.886 1.886 0 00-.452-.767 1.836 1.836 0 00-.812-.476 1.859 1.859 0 00-.94-.058 1.945 1.945 0 00-.803.384 2.733 2.733 0 00-.626.716 3.987 3.987 0 00-.426.95zm9.119-1.007l-2.158 7.075-1.216-.371 2.158-7.074 1.216.37zm-.735-2.275a.763.763 0 01.328-.443c.163-.098.363-.111.598-.039.231.07.387.192.468.364a.733.733 0 01.038.555.719.719 0 01-.337.426c-.162.093-.359.105-.59.034-.235-.071-.394-.191-.476-.359a.749.749 0 01-.029-.538zm5.397 9.93l2.645-8.67 1.216.371-3.063 10.043-1.112-.339.314-1.405zm-4.123-3.538l.041-.137c.165-.541.38-1.011.645-1.412.271-.403.577-.727.918-.97a2.696 2.696 0 011.106-.464 2.63 2.63 0 011.231.09c.445.136.809.332 1.092.59.289.255.504.566.645.933.146.364.223.774.232 1.229.009.455-.04.952-.147 1.491l-.184.602a6.407 6.407 0 01-.708 1.313c-.261.373-.554.67-.879.89a2.42 2.42 0 01-1.055.414c-.382.05-.798.007-1.247-.13a2.539 2.539 0 01-1.056-.615 2.81 2.81 0 01-.653-1.021 3.82 3.82 0 01-.222-1.311c.003-.481.084-.978.241-1.492zm1.258.234l-.042.137a4.722 4.722 0 00-.199 1.026c-.02.332.01.639.091.921.081.282.218.526.412.733.196.202.457.354.784.453.401.123.756.138 1.065.047a2 2 0 00.833-.482c.242-.232.457-.497.644-.798l.48-1.575a3.67 3.67 0 00-.017-.763 2.24 2.24 0 00-.196-.718 1.713 1.713 0 00-.439-.598 1.935 1.935 0 00-.743-.398c-.332-.101-.639-.119-.921-.052a1.74 1.74 0 00-.753.384 2.706 2.706 0 00-.592.721c-.164.288-.3.608-.407.962zm16.287-1.522l.104.032-.313 1.027-.104-.032c-.641-.196-1.209-.255-1.704-.177a2.75 2.75 0 00-1.28.517c-.358.268-.66.6-.905.997-.24.398-.428.819-.564 1.264l-.427 1.399a3.996 3.996 0 00-.192 1.171c.001.353.056.667.162.943.107.275.252.503.435.683.188.181.402.308.641.381.279.085.544.109.794.071.251-.043.48-.138.686-.284.213-.15.399-.346.558-.587a3.22 3.22 0 00.385-.841c.087-.283.135-.566.145-.849a2.296 2.296 0 00-.105-.804 1.608 1.608 0 00-.393-.656 1.583 1.583 0 00-.709-.416 1.954 1.954 0 00-1.018-.039 2.261 2.261 0 00-.908.423 1.81 1.81 0 00-.575.761l-.639-.202c.21-.469.451-.851.721-1.145.277-.297.572-.516.887-.658.321-.146.651-.221.991-.227.346-.009.693.04 1.042.146.475.145.858.36 1.148.643.289.284.5.61.63.979.132.364.193.75.183 1.156a4.2 4.2 0 01-.185 1.194 4.271 4.271 0 01-.575 1.204c-.246.354-.54.641-.884.86a2.673 2.673 0 01-1.133.412c-.417.054-.867.007-1.351-.141-.514-.156-.931-.398-1.251-.724a3.023 3.023 0 01-.695-1.141 4.07 4.07 0 01-.21-1.351c.005-.47.075-.927.211-1.372l.174-.569a10 10 0 01.805-1.913 5.51 5.51 0 011.234-1.539 3.759 3.759 0 011.773-.824c.688-.128 1.491-.052 2.411.228zm7.642 6.719l-.443 1.452c-.238.78-.509 1.417-.812 1.911-.303.493-.635.864-.996 1.111-.362.247-.75.388-1.166.423a3.51 3.51 0 01-1.308-.163 3.688 3.688 0 01-.971-.446 2.515 2.515 0 01-.704-.694 2.774 2.774 0 01-.384-.989 4.448 4.448 0 01-.036-1.311 8.983 8.983 0 01.361-1.677l.443-1.452c.238-.78.507-1.412.808-1.897.304-.484.636-.845.995-1.083.36-.243.744-.378 1.153-.406.413-.027.848.03 1.306.17.37.113.696.262.978.448.287.183.523.41.707.68.186.267.314.587.386.961.077.372.091.802.042 1.292a8.906 8.906 0 01-.359 1.67zm-1.719 1.277l.564-1.85c.13-.427.219-.81.265-1.149.052-.341.065-.642.039-.903a1.73 1.73 0 00-.194-.674 1.358 1.358 0 00-.408-.467 1.894 1.894 0 00-.602-.298 1.795 1.795 0 00-.815-.07 1.432 1.432 0 00-.716.332c-.219.186-.425.454-.617.805a7.12 7.12 0 00-.535 1.331l-.564 1.85a8.041 8.041 0 00-.273 1.153c-.048.343-.058.65-.031.92.029.266.091.497.189.694.097.196.228.36.393.491.17.129.371.228.602.298.297.091.573.113.83.068a1.48 1.48 0 00.718-.36c.227-.198.435-.475.625-.832a7.66 7.66 0 00.53-1.339zm9.251 1.021l-.443 1.452c-.238.78-.508 1.417-.811 1.91-.303.494-.636.864-.997 1.111-.361.248-.75.389-1.165.424a3.537 3.537 0 01-1.309-.163 3.722 3.722 0 01-.971-.447 2.508 2.508 0 01-.703-.693 2.775 2.775 0 01-.385-.989 4.523 4.523 0 01-.036-1.312 9 9 0 01.362-1.676l.442-1.452c.238-.78.508-1.413.808-1.898.305-.483.636-.844.995-1.083.36-.242.744-.378 1.153-.406.413-.026.848.031 1.306.17.371.113.697.263.978.449.287.183.523.409.708.68.185.266.314.587.385.961.078.371.092.802.042 1.292a8.827 8.827 0 01-.359 1.67zm-1.719 1.277l.565-1.851c.13-.427.218-.81.264-1.148a3.71 3.71 0 00.04-.903 1.747 1.747 0 00-.195-.674 1.34 1.34 0 00-.408-.467 1.873 1.873 0 00-.602-.298 1.78 1.78 0 00-.815-.07 1.427 1.427 0 00-.716.332c-.218.185-.424.454-.617.805a7.108 7.108 0 00-.535 1.33l-.564 1.851c-.13.427-.221.811-.273 1.153a3.894 3.894 0 00-.031.92c.029.266.092.497.189.693.097.197.228.361.393.492.171.128.372.227.603.298.296.09.573.113.83.067a1.46 1.46 0 00.717-.36c.227-.197.435-.474.625-.831a7.66 7.66 0 00.53-1.339zm9.393-3.31l-2.904 9.52-1.262-.385 2.904-9.52 1.262.385zm2.682 5.499l-.315 1.033-4.263-1.3.315-1.033 4.263 1.3zm1.954-4.085l-.315 1.033-4.911-1.498.315-1.033 4.911 1.498zm-.992 6.322l.045-.15c.156-.51.374-.96.655-1.351.283-.395.613-.711.99-.949a2.993 2.993 0 011.245-.449 3.296 3.296 0 011.418.132c.497.152.916.38 1.256.684.347.301.61.657.789 1.069.185.409.284.856.298 1.342.016.481-.055.977-.21 1.487l-.046.15c-.156.51-.374.96-.655 1.351a3.54 3.54 0 01-.997.947 3.103 3.103 0 01-1.244.449 3.324 3.324 0 01-1.416-.139 3.37 3.37 0 01-1.259-.677 3.178 3.178 0 01-.788-1.069 3.616 3.616 0 01-.292-1.34 4.578 4.578 0 01.211-1.487zm1.255.219l-.046.15c-.108.354-.168.7-.181 1.039-.011.334.029.647.122.937.096.292.25.546.46.763.212.212.486.369.821.472.331.101.642.121.932.062.295-.062.562-.188.801-.377s.447-.426.624-.71c.183-.288.328-.608.436-.961l.046-.15c.106-.349.163-.691.17-1.028a2.654 2.654 0 00-.126-.946 1.882 1.882 0 00-.452-.766 1.834 1.834 0 00-.812-.477 1.87 1.87 0 00-.94-.058 1.98 1.98 0 00-.804.384 2.758 2.758 0 00-.626.717 3.96 3.96 0 00-.425.949zm8.675.073l-1.819 5.964-1.209-.369 2.158-7.075 1.177.359-.307 1.121zm2.561-.476l-.349 1.122a1.975 1.975 0 00-.276-.127 3.028 3.028 0 00-.297-.104 2.032 2.032 0 00-.778-.095 1.595 1.595 0 00-.655.201 1.824 1.824 0 00-.524.454 2.806 2.806 0 00-.379.657l-.4.092c.13-.427.294-.816.491-1.165.202-.348.436-.639.702-.872.268-.238.564-.395.888-.473.329-.081.686-.062 1.069.055.087.026.184.068.291.124a.93.93 0 01.217.131zm1.881 2.153l-1.729 5.669-1.217-.371 2.158-7.075 1.151.351-.363 1.426zm-.817 1.788l-.556-.192a5.05 5.05 0 01.598-1.282c.248-.377.539-.681.872-.913a2.514 2.514 0 011.111-.433c.409-.061.849-.02 1.32.124.331.101.622.242.872.423.251.176.448.396.592.659.144.263.224.569.242.917.017.349-.042.745-.177 1.19l-1.438 4.714-1.21-.369 1.42-4.655c.113-.371.14-.687.082-.947a1.135 1.135 0 00-.376-.644 1.957 1.957 0 00-.75-.4c-.357-.109-.675-.137-.953-.084a1.587 1.587 0 00-.735.348 2.442 2.442 0 00-.547.669c-.148.265-.27.556-.367.875zm4.787.731l-.887.001c.123-.387.3-.74.531-1.06.235-.319.513-.582.834-.789a2.686 2.686 0 011.084-.392c.399-.059.823-.02 1.272.117.38.116.7.268.961.457.266.191.467.422.604.692.143.267.217.578.223.933.006.354-.058.754-.194 1.198l-1.418 4.649-1.216-.371 1.422-4.662c.121-.396.151-.723.091-.979a1.03 1.03 0 00-.381-.624 2.178 2.178 0 00-.756-.381 1.795 1.795 0 00-.748-.078 1.522 1.522 0 00-.632.222 1.725 1.725 0 00-.486.445 2.095 2.095 0 00-.304.622zm9.381 6.428l1.111-3.642c.085-.279.102-.539.052-.778a1.168 1.168 0 00-.35-.635c-.188-.182-.445-.322-.772-.422a2.023 2.023 0 00-.852-.088 1.465 1.465 0 00-.662.248.95.95 0 00-.357.492l-1.209-.369a1.66 1.66 0 01.425-.692 2.3 2.3 0 01.768-.502c.311-.129.656-.2 1.037-.213a3.66 3.66 0 011.219.172c.515.157.941.382 1.281.676.343.296.572.654.687 1.075.12.418.1.89-.061 1.418l-1.005 3.295a5.403 5.403 0 00-.171.77 3.112 3.112 0 00-.02.744l-.032.105-1.262-.385a2.42 2.42 0 01.026-.6c.037-.246.086-.469.147-.669zm1.149-3.016l-.246.854-1.223-.373a4.66 4.66 0 00-.948-.196 2.19 2.19 0 00-.754.034 1.209 1.209 0 00-.544.284 1.138 1.138 0 00-.317.525c-.068.223-.08.441-.035.654.044.214.15.406.317.576.173.167.408.296.704.386.371.113.722.135 1.053.064.331-.07.614-.194.849-.37.239-.175.398-.367.476-.577l.339.74a1.825 1.825 0 01-.434.532 3.056 3.056 0 01-1.689.736 2.729 2.729 0 01-1.093-.119c-.48-.147-.872-.369-1.176-.666a2.257 2.257 0 01-.608-1.008 2.077 2.077 0 01.031-1.155 2.25 2.25 0 01.527-.933c.238-.247.525-.423.862-.53.339-.111.72-.157 1.143-.138.423.02.876.103 1.36.251l1.406.429zm6.715-.997l-.284.929-3.825-1.167.284-.928 3.825 1.166zm-2.006-2.491l1.209.369-2.148 7.042c-.073.24-.091.432-.054.576a.554.554 0 00.214.33c.106.075.226.133.361.175.1.03.208.053.322.069.12.013.21.022.271.026l-.295.989a2.961 2.961 0 01-.405-.031 3.044 3.044 0 01-.57-.123 1.982 1.982 0 01-.763-.426 1.377 1.377 0 01-.416-.77c-.058-.323-.016-.72.128-1.191l2.146-7.035z" fill="#142251"/><rect x="121.52" y="26.652" width="283.602" height="277.116" rx="11.5" transform="rotate(16.963 121.52 26.652)" stroke="#989EB1"/></g></svg>