<svg width="18" height="18" fill="none" xmlns="http://www.w3.org/2000/svg"><path d="M9 18A9 9 0 109 0a9 9 0 000 18z" fill="#213887"/><path fill-rule="evenodd" clip-rule="evenodd" d="M4.074 8.905a428.273 428.273 0 015.249-2.26c2.499-1.04 3.018-1.22 3.357-1.227a.592.592 0 01.349.105.379.379 0 01.128.244c.012.07.027.23.015.354-.136 1.423-.722 4.877-1.02 6.47-.126.675-.374.901-.615.923-.523.048-.92-.345-1.426-.677-.792-.52-1.24-.842-2.008-1.35-.889-.585-.313-.907.194-1.433.132-.137 2.435-2.232 2.48-2.422.005-.024.01-.112-.042-.159-.053-.047-.13-.03-.187-.018-.08.018-1.345.854-3.796 2.51-.36.246-.684.366-.976.36-.321-.007-.94-.182-1.399-.331-.564-.184-1.012-.28-.973-.592.02-.162.244-.327.67-.497z" fill="#fff"/></svg>