<svg width="18" height="20" fill="none" xmlns="http://www.w3.org/2000/svg"><path fill-rule="evenodd" clip-rule="evenodd" d="M9.034 18.888h.004c4.941-.002 8.96-4.022 8.962-8.962 0-2.395-.93-4.647-2.623-6.34a8.904 8.904 0 00-6.34-2.63C4.098.957.078 4.978.076 9.92c0 1.58.412 3.121 1.196 4.48L0 19.043l4.751-1.246a8.954 8.954 0 004.283 1.09zm4.213-7.033c.156.076.261.127.307.202.056.093.056.542-.131 1.065-.187.523-1.081 1-1.512 1.065a3.068 3.068 0 01-1.41-.09 12.88 12.88 0 01-1.277-.47c-2.1-.907-3.518-2.942-3.786-3.327l-.04-.055-.001-.003c-.119-.158-.913-1.217-.913-2.314 0-1.031.507-1.572.74-1.82l.044-.048a.823.823 0 01.597-.28c.15 0 .299.001.43.008h.05c.13 0 .293-.001.453.384l.248.6c.192.47.405.988.443 1.063.056.112.093.243.018.392-.01.023-.021.044-.031.064-.056.114-.097.199-.192.31a3.36 3.36 0 00-.115.138c-.077.093-.154.187-.221.254-.112.112-.23.233-.099.457s.58.958 1.246 1.552a5.783 5.783 0 001.653 1.044c.062.027.112.049.148.067.224.112.355.093.485-.056.13-.15.56-.654.71-.878.149-.224.298-.187.503-.112.206.075 1.306.616 1.53.728l.123.06z" fill="#213887"/></svg>