<svg width="24" height="22" viewBox="0 0 24 22" fill="none" xmlns="http://www.w3.org/2000/svg">
<path d="M12.4393 0.939096C13.0251 0.353309 13.9749 0.353309 14.5607 0.939096L23.5607 9.9391C23.842 10.2204 24 10.6019 24 10.9998C24 11.3976 23.842 11.7791 23.5607 12.0604L14.5607 21.0604C13.9749 21.6462 13.0251 21.6462 12.4393 21.0604C11.8536 20.4746 11.8536 19.5249 12.4393 18.9391L18.8787 12.4998L1.5 12.4998C0.671573 12.4998 0 11.8282 0 10.9998C0 10.1713 0.671573 9.49976 1.5 9.49976H18.8787L12.4393 3.06042C11.8536 2.47463 11.8536 1.52488 12.4393 0.939096Z" fill="#142251"/>
</svg>
