<svg width="40" height="40" viewBox="0 0 40 40" fill="none" xmlns="http://www.w3.org/2000/svg">
<path d="M31.0039 0.27018C31.6205 0.628024 32 1.28706 32 2V10C34.3695 10 36.5005 11.0327 37.9625 12.6662C39.2281 14.0802 40 15.9523 40 18C40 20.0477 39.2281 21.9198 37.9625 23.3338C36.5005 24.9673 34.3695 26 32 26V34C32 34.7129 31.6205 35.372 31.0039 35.7298C30.3872 36.0877 29.6267 36.0902 29.0077 35.7365L16 28.3035V38C16 39.1046 15.1046 40 14 40H6C4.89543 40 4 39.1046 4 38V28C1.79086 28 0 26.2091 0 24V12C0 9.79086 1.79086 8 4 8H15.4689L29.0077 0.263514C29.6267 -0.090204 30.3872 -0.0876641 31.0039 0.27018ZM16 24C16.3481 24 16.6901 24.0908 16.9923 24.2635L28 30.5536V5.44636L16.9923 11.7365C16.6901 11.9092 16.3481 12 16 12H4V24H16ZM8 28V36H12V28H8ZM32 22C33.1845 22 34.2467 21.4877 34.9819 20.6662C35.6165 19.9572 36 19.0258 36 18C36 16.9742 35.6165 16.0428 34.9819 15.3338C34.2467 14.5123 33.1845 14 32 14V22Z" fill="#142251"/>
</svg>
