<svg width="40" height="36" viewBox="0 0 40 36" fill="none" xmlns="http://www.w3.org/2000/svg">
<path fill-rule="evenodd" clip-rule="evenodd" d="M14 0C10.6863 0 8 2.68629 8 6V8.00004L4 8.00007C1.79088 8.00007 0 9.79088 0 12V32C0 34.2091 1.79086 36 4 36H36C38.2091 36 40 34.2091 40 32V12C40 9.79086 38.2091 8 36 8H32V6C32 2.68629 29.3137 0 26 0H14ZM28 8V6C28 4.89543 27.1046 4 26 4H14C12.8954 4 12 4.89543 12 6V8.00001L28 8ZM4 12V16H36V12H4ZM36 20H25.6586C24.8349 22.3304 22.6124 24 20 24C17.3876 24 15.1651 22.3304 14.3414 20H4V32H36V20Z" fill="#142251"/>
</svg>
