<svg width="36" height="40" viewBox="0 0 36 40" fill="none" xmlns="http://www.w3.org/2000/svg">
<path d="M18 4C13.5817 4 10 7.58172 10 12C10 16.4183 13.5817 20 18 20C22.4183 20 26 16.4183 26 12C26 7.58172 22.4183 4 18 4ZM6 12C6 5.37258 11.3726 0 18 0C24.6274 0 30 5.37258 30 12C30 18.6274 24.6274 24 18 24C11.3726 24 6 18.6274 6 12ZM10 32C6.68629 32 4 34.6863 4 38C4 39.1046 3.10457 40 2 40C0.89543 40 0 39.1046 0 38C0 32.4771 4.47716 28 10 28H26C31.5228 28 36 32.4771 36 38C36 39.1046 35.1046 40 34 40C32.8954 40 32 39.1046 32 38C32 34.6863 29.3137 32 26 32H10Z" fill="#142251"/>
</svg>
