<svg width="40" height="39" viewBox="0 0 40 39" fill="none" xmlns="http://www.w3.org/2000/svg">
<path d="M20 0C20.7575 0 21.4501 0.428005 21.7888 1.10557L26.9467 11.4212L38.2879 13.0708C39.0411 13.1804 39.6669 13.708 39.9021 14.432C40.1373 15.1559 39.9412 15.9506 39.3962 16.482L31.1419 24.5299L32.9987 35.877C33.1215 36.6269 32.8086 37.3816 32.1913 37.8248C31.5739 38.2679 30.7588 38.3229 30.0876 37.9667L20 32.6141L9.91243 37.9667C9.24117 38.3229 8.42605 38.2679 7.80873 37.8248C7.19141 37.3816 6.87853 36.6269 7.00125 35.877L8.85805 24.5299L0.603797 16.482C0.0587858 15.9506 -0.137335 15.1559 0.0978781 14.432C0.333091 13.708 0.958855 13.1804 1.71212 13.0708L13.0533 11.4212L18.2111 1.10557C18.5499 0.428005 19.2425 0 20 0ZM20 6.47214L16.1638 14.1444C15.8712 14.7298 15.3106 15.135 14.6629 15.2292L6.29677 16.4461L12.3962 22.393C12.8636 22.8487 13.0792 23.5038 12.9737 24.148L11.6 32.543L19.0626 28.5833C19.6488 28.2722 20.3512 28.2722 20.9374 28.5833L28.4 32.543L27.0262 24.148C26.9208 23.5038 27.1364 22.8487 27.6038 22.393L33.7032 16.4461L25.3371 15.2292C24.6894 15.135 24.1288 14.7298 23.8361 14.1444L20 6.47214Z" fill="#142251"/>
</svg>
