<svg width="19" height="21" viewBox="0 0 19 21" fill="none" xmlns="http://www.w3.org/2000/svg">
<path d="M12.6844 0.536661C12.9852 0.073476 13.6045 -0.0581664 14.0677 0.24263L17.6259 2.55334C18.089 2.85413 18.2207 3.47346 17.9199 3.93665L10.9878 14.6112C10.8433 14.8336 10.6164 14.9895 10.357 15.0447L7.42256 15.6684C6.88235 15.7833 6.35133 15.4384 6.23651 14.8982L5.61277 11.9637C5.55763 11.7043 5.6078 11.4336 5.75225 11.2112L12.6844 0.536661ZM7.65519 11.9531L7.98489 13.5042L9.53602 13.1745L15.6979 3.68604L13.8171 2.46461L7.65519 11.9531ZM0.45271 6.92651C0.223057 5.84607 0.91275 4.78404 1.99318 4.55439L6.88392 3.51483C7.42414 3.4 7.95515 3.74485 8.06998 4.28507C8.18481 4.82528 7.83996 5.3563 7.29974 5.47112L2.40901 6.51068L4.90395 18.2485L16.6417 15.7535L15.6022 10.8628C15.4873 10.3226 15.8322 9.79154 16.3724 9.67672C16.9126 9.56189 17.4436 9.90674 17.5585 10.447L18.598 15.3377C18.8277 16.4181 18.138 17.4802 17.0575 17.7098L5.31977 20.2047C4.23934 20.4344 3.1773 19.7447 2.94765 18.6643L0.45271 6.92651Z" fill="#142251"/>
</svg>
