<svg width="17" height="17" viewBox="0 0 17 17" fill="none" xmlns="http://www.w3.org/2000/svg">
<path d="M0.864458 13.8032C0.401273 13.5024 0.269631 12.8831 0.570426 12.4199L8.19537 0.678487C8.49617 0.215301 9.1155 0.0836593 9.57868 0.384455C10.0419 0.685251 10.1735 1.30458 9.87271 1.76776L2.24777 13.5092C1.94697 13.9723 1.32764 14.104 0.864458 13.8032ZM6.14709 14.849C5.6839 14.5482 5.55226 13.9289 5.85306 13.4657L11.2994 5.07902C11.6002 4.61584 12.2196 4.4842 12.6828 4.78499C13.1459 5.08579 13.2776 5.70512 12.9768 6.1683L7.5304 14.555C7.2296 15.0182 6.61027 15.1498 6.14709 14.849ZM11.4297 15.8949C10.9665 15.5941 10.8349 14.9748 11.1357 14.5116L14.4035 9.47956C14.7043 9.01637 15.3236 8.88473 15.7868 9.18553C16.25 9.48632 16.3817 10.1057 16.0809 10.5688L12.813 15.6009C12.5122 16.064 11.8929 16.1957 11.4297 15.8949Z" fill="#142251" fill-opacity="0.44"/>
</svg>
