<svg width="18" height="17" viewBox="0 0 18 17" fill="none" xmlns="http://www.w3.org/2000/svg">
<path d="M1.11781 3.13673C1.4186 2.67354 2.03793 2.5419 2.50111 2.8427L8.7788 6.91948L12.8556 0.641789C13.1564 0.178605 13.7757 0.046962 14.2389 0.347758C14.7021 0.648554 14.8337 1.26788 14.5329 1.73107L10.4561 8.00875L16.7338 12.0855C17.197 12.3863 17.3287 13.0057 17.0279 13.4688C16.7271 13.932 16.1077 14.0637 15.6445 13.7629L9.36686 9.68609L5.29009 15.9638C4.98929 16.427 4.36996 16.5586 3.90678 16.2578C3.44359 15.957 3.31195 15.3377 3.61275 14.8745L7.68952 8.59682L1.41184 4.52004C0.948652 4.21924 0.817009 3.59991 1.11781 3.13673Z" fill="#142251"/>
</svg>
