<svg width="248" height="104" viewBox="0 0 248 104" fill="none" xmlns="http://www.w3.org/2000/svg">
<g filter="url(#filter0_i_0_2921)">
<rect width="248" height="104" rx="52" fill="white"/>
<rect width="32" height="32" transform="translate(36 36)" fill="white"/>
<g filter="url(#filter1_i_0_2921)">
<path d="M52.3334 39C52.8384 39 53.3001 39.2853 53.5259 39.737L56.9645 46.6141L64.5253 47.7139C65.0275 47.7869 65.4446 48.1387 65.6014 48.6213C65.7583 49.1039 65.6275 49.6337 65.2642 49.988L59.7613 55.3533L60.9992 62.918C61.081 63.418 60.8724 63.9211 60.4609 64.2165C60.0493 64.5119 59.5059 64.5486 59.0584 64.3111L52.3334 60.7427L45.6083 64.3111C45.1608 64.5486 44.6174 64.5119 44.2059 64.2165C43.7943 63.9211 43.5857 63.418 43.6675 62.918L44.9054 55.3533L39.4026 49.988C39.0392 49.6337 38.9085 49.1039 39.0653 48.6213C39.2221 48.1387 39.6393 47.7869 40.1415 47.7139L47.7023 46.6141L51.1408 39.737C51.3667 39.2853 51.8283 39 52.3334 39ZM52.3334 58.6667L49.6014 51.3111C49.4063 51.7014 49.2071 49.09 48.7753 49.1528L55.6014 53.8111L47.2642 53.9287C47.5758 54.2325 47.1717 51.8817 47.1014 52.3111L51.8334 53.5549L53.7863 53.8367C54.1772 53.6293 52.5675 57.8482 52.9583 58.0555L57.9334 60.6953L55.1014 59.8111C55.0312 59.3817 52.2899 59.197 52.6014 58.8932L61.4689 49.964L51.8334 59.6667C51.4016 59.6039 53.2966 54.7014 53.1014 54.3111L52.3334 58.6667Z" fill="#142251"/>
</g>
<rect width="32" height="32" transform="translate(72 36)" fill="white"/>
<g filter="url(#filter2_i_0_2921)">
<path d="M88.3334 39C88.8384 39 89.3001 39.2853 89.5259 39.737L92.9645 46.6141L100.525 47.7139C101.027 47.7869 101.445 48.1387 101.601 48.6213C101.758 49.1039 101.628 49.6337 101.264 49.988L95.7613 55.3533L96.9992 62.918C97.081 63.418 96.8724 63.9211 96.4609 64.2165C96.0493 64.5119 95.5059 64.5486 95.0584 64.3111L88.3334 60.7427L81.6083 64.3111C81.1608 64.5486 80.6174 64.5119 80.2059 64.2165C79.7943 63.9211 79.5857 63.418 79.6675 62.918L80.9054 55.3533L75.4026 49.988C75.0392 49.6337 74.9085 49.1039 75.0653 48.6213C75.2221 48.1387 75.6393 47.7869 76.1415 47.7139L83.7023 46.6141L87.1408 39.737C87.3667 39.2853 87.8283 39 88.3334 39ZM88.3334 58.6667L85.6014 51.3111C85.4063 51.7014 85.2071 49.09 84.7753 49.1528L91.6014 53.8111L83.2642 53.9287C83.5758 54.2325 83.1717 51.8817 83.1014 52.3111L87.8334 53.5549L89.7863 53.8367C90.1772 53.6293 88.5675 57.8482 88.9583 58.0555L93.9334 60.6953L91.1014 59.8111C91.0312 59.3817 88.2899 59.197 88.6014 58.8932L97.4689 49.964L87.8334 59.6667C87.4016 59.6039 89.2966 54.7014 89.1014 54.3111L88.3334 58.6667Z" fill="#142251"/>
</g>
<rect width="32" height="32" transform="translate(108 36)" fill="white"/>
<g filter="url(#filter3_i_0_2921)">
<path d="M124.333 39C124.838 39 125.3 39.2853 125.526 39.737L128.964 46.6141L136.525 47.7139C137.027 47.7869 137.445 48.1387 137.601 48.6213C137.758 49.1039 137.628 49.6337 137.264 49.988L131.761 55.3533L132.999 62.918C133.081 63.418 132.872 63.9211 132.461 64.2165C132.049 64.5119 131.506 64.5486 131.058 64.3111L124.333 60.7427L117.608 64.3111C117.161 64.5486 116.617 64.5119 116.206 64.2165C115.794 63.9211 115.586 63.418 115.668 62.918L116.905 55.3533L111.403 49.988C111.039 49.6337 110.908 49.1039 111.065 48.6213C111.222 48.1387 111.639 47.7869 112.141 47.7139L119.702 46.6141L123.141 39.737C123.367 39.2853 123.828 39 124.333 39ZM124.333 58.6667L121.601 51.3111C121.406 51.7014 121.207 49.09 120.775 49.1528L127.601 53.8111L119.264 53.9287C119.576 54.2325 119.172 51.8817 119.101 52.3111L123.833 53.5549L125.786 53.8367C126.177 53.6293 124.567 57.8482 124.958 58.0555L129.933 60.6953L127.101 59.8111C127.031 59.3817 124.29 59.197 124.601 58.8932L133.469 49.964L123.833 59.6667C123.402 59.6039 125.297 54.7014 125.101 54.3111L124.333 58.6667Z" fill="#142251"/>
</g>
<rect width="32" height="32" transform="translate(144 36)" fill="white"/>
<g filter="url(#filter4_i_0_2921)">
<path d="M160.333 39C160.838 39 161.3 39.2853 161.526 39.737L164.964 46.6141L172.525 47.7139C173.027 47.7869 173.445 48.1387 173.601 48.6213C173.758 49.1039 173.628 49.6337 173.264 49.988L167.761 55.3533L168.999 62.918C169.081 63.418 168.872 63.9211 168.461 64.2165C168.049 64.5119 167.506 64.5486 167.058 64.3111L160.333 60.7427L153.608 64.3111C153.161 64.5486 152.617 64.5119 152.206 64.2165C151.794 63.9211 151.586 63.418 151.668 62.918L152.905 55.3533L147.403 49.988C147.039 49.6337 146.908 49.1039 147.065 48.6213C147.222 48.1387 147.639 47.7869 148.141 47.7139L155.702 46.6141L159.141 39.737C159.367 39.2853 159.828 39 160.333 39ZM160.333 58.6667L157.601 51.3111C157.406 51.7014 157.207 49.09 156.775 49.1528L163.601 53.8111L155.264 53.9287C155.576 54.2325 155.172 51.8817 155.101 52.3111L159.833 53.5549L161.786 53.8367C162.177 53.6293 160.567 57.8482 160.958 58.0555L165.933 60.6953L163.101 59.8111C163.031 59.3817 160.29 59.197 160.601 58.8932L169.469 49.964L159.833 59.6667C159.402 59.6039 161.297 54.7014 161.101 54.3111L160.333 58.6667Z" fill="#142251"/>
</g>
<rect width="32" height="32" transform="translate(180 36)" fill="white"/>
<g filter="url(#filter5_i_0_2921)">
<path d="M196.333 39C196.838 39 197.3 39.2853 197.526 39.737L200.964 46.6141L208.525 47.7139C209.027 47.7869 209.445 48.1387 209.601 48.6213C209.758 49.1039 209.628 49.6337 209.264 49.988L203.761 55.3533L204.999 62.918C205.081 63.418 204.872 63.9211 204.461 64.2165C204.049 64.5119 203.506 64.5486 203.058 64.3111L196.333 60.7427L189.608 64.3111C189.161 64.5486 188.617 64.5119 188.206 64.2165C187.794 63.9211 187.586 63.418 187.668 62.918L188.905 55.3533L183.403 49.988C183.039 49.6337 182.908 49.1039 183.065 48.6213C183.222 48.1387 183.639 47.7869 184.141 47.7139L191.702 46.6141L195.141 39.737C195.367 39.2853 195.828 39 196.333 39ZM196.333 58.6667L193.601 51.3111C193.406 51.7014 193.207 49.09 192.775 49.1528L199.601 53.8111L191.264 53.9287C191.576 54.2325 191.172 51.8817 191.101 52.3111L195.833 53.5549L197.786 53.8367C198.177 53.6293 196.567 57.8482 196.958 58.0555L201.933 60.6953L199.101 59.8111C199.031 59.3817 196.29 59.197 196.601 58.8932L205.469 49.964L195.833 59.6667C195.402 59.6039 197.297 54.7014 197.101 54.3111L196.333 58.6667Z" fill="#142251"/>
</g>
</g>
<defs>
<filter id="filter0_i_0_2921" x="0" y="0" width="248" height="104" filterUnits="userSpaceOnUse" color-interpolation-filters="sRGB">
<feFlood flood-opacity="0" result="BackgroundImageFix"/>
<feBlend mode="normal" in="SourceGraphic" in2="BackgroundImageFix" result="shape"/>
<feColorMatrix in="SourceAlpha" type="matrix" values="0 0 0 0 0 0 0 0 0 0 0 0 0 0 0 0 0 0 127 0" result="hardAlpha"/>
<feOffset/>
<feGaussianBlur stdDeviation="6"/>
<feComposite in2="hardAlpha" operator="arithmetic" k2="-1" k3="1"/>
<feColorMatrix type="matrix" values="0 0 0 0 0.894118 0 0 0 0 0.905882 0 0 0 0 0.945098 0 0 0 1 0"/>
<feBlend mode="normal" in2="shape" result="effect1_innerShadow_0_2921"/>
</filter>
<filter id="filter1_i_0_2921" x="39" y="39" width="26.6667" height="25.4666" filterUnits="userSpaceOnUse" color-interpolation-filters="sRGB">
<feFlood flood-opacity="0" result="BackgroundImageFix"/>
<feBlend mode="normal" in="SourceGraphic" in2="BackgroundImageFix" result="shape"/>
<feColorMatrix in="SourceAlpha" type="matrix" values="0 0 0 0 0 0 0 0 0 0 0 0 0 0 0 0 0 0 127 0" result="hardAlpha"/>
<feOffset/>
<feGaussianBlur stdDeviation="2"/>
<feComposite in2="hardAlpha" operator="arithmetic" k2="-1" k3="1"/>
<feColorMatrix type="matrix" values="0 0 0 0 1 0 0 0 0 1 0 0 0 0 1 0 0 0 1 0"/>
<feBlend mode="normal" in2="shape" result="effect1_innerShadow_0_2921"/>
</filter>
<filter id="filter2_i_0_2921" x="75" y="39" width="26.6667" height="25.4666" filterUnits="userSpaceOnUse" color-interpolation-filters="sRGB">
<feFlood flood-opacity="0" result="BackgroundImageFix"/>
<feBlend mode="normal" in="SourceGraphic" in2="BackgroundImageFix" result="shape"/>
<feColorMatrix in="SourceAlpha" type="matrix" values="0 0 0 0 0 0 0 0 0 0 0 0 0 0 0 0 0 0 127 0" result="hardAlpha"/>
<feOffset/>
<feGaussianBlur stdDeviation="2"/>
<feComposite in2="hardAlpha" operator="arithmetic" k2="-1" k3="1"/>
<feColorMatrix type="matrix" values="0 0 0 0 1 0 0 0 0 1 0 0 0 0 1 0 0 0 1 0"/>
<feBlend mode="normal" in2="shape" result="effect1_innerShadow_0_2921"/>
</filter>
<filter id="filter3_i_0_2921" x="111" y="39" width="26.6667" height="25.4666" filterUnits="userSpaceOnUse" color-interpolation-filters="sRGB">
<feFlood flood-opacity="0" result="BackgroundImageFix"/>
<feBlend mode="normal" in="SourceGraphic" in2="BackgroundImageFix" result="shape"/>
<feColorMatrix in="SourceAlpha" type="matrix" values="0 0 0 0 0 0 0 0 0 0 0 0 0 0 0 0 0 0 127 0" result="hardAlpha"/>
<feOffset/>
<feGaussianBlur stdDeviation="2"/>
<feComposite in2="hardAlpha" operator="arithmetic" k2="-1" k3="1"/>
<feColorMatrix type="matrix" values="0 0 0 0 1 0 0 0 0 1 0 0 0 0 1 0 0 0 1 0"/>
<feBlend mode="normal" in2="shape" result="effect1_innerShadow_0_2921"/>
</filter>
<filter id="filter4_i_0_2921" x="147" y="39" width="26.6667" height="25.4666" filterUnits="userSpaceOnUse" color-interpolation-filters="sRGB">
<feFlood flood-opacity="0" result="BackgroundImageFix"/>
<feBlend mode="normal" in="SourceGraphic" in2="BackgroundImageFix" result="shape"/>
<feColorMatrix in="SourceAlpha" type="matrix" values="0 0 0 0 0 0 0 0 0 0 0 0 0 0 0 0 0 0 127 0" result="hardAlpha"/>
<feOffset/>
<feGaussianBlur stdDeviation="2"/>
<feComposite in2="hardAlpha" operator="arithmetic" k2="-1" k3="1"/>
<feColorMatrix type="matrix" values="0 0 0 0 1 0 0 0 0 1 0 0 0 0 1 0 0 0 1 0"/>
<feBlend mode="normal" in2="shape" result="effect1_innerShadow_0_2921"/>
</filter>
<filter id="filter5_i_0_2921" x="183" y="39" width="26.6667" height="25.4666" filterUnits="userSpaceOnUse" color-interpolation-filters="sRGB">
<feFlood flood-opacity="0" result="BackgroundImageFix"/>
<feBlend mode="normal" in="SourceGraphic" in2="BackgroundImageFix" result="shape"/>
<feColorMatrix in="SourceAlpha" type="matrix" values="0 0 0 0 0 0 0 0 0 0 0 0 0 0 0 0 0 0 127 0" result="hardAlpha"/>
<feOffset/>
<feGaussianBlur stdDeviation="2"/>
<feComposite in2="hardAlpha" operator="arithmetic" k2="-1" k3="1"/>
<feColorMatrix type="matrix" values="0 0 0 0 1 0 0 0 0 1 0 0 0 0 1 0 0 0 1 0"/>
<feBlend mode="normal" in2="shape" result="effect1_innerShadow_0_2921"/>
</filter>
</defs>
</svg>
