<svg width="27" height="26" viewBox="0 0 27 26" fill="none" xmlns="http://www.w3.org/2000/svg">
<g filter="url(#filter0_i_335_20)">
<path d="M13.3334 0C13.8384 0 14.3001 0.285336 14.5259 0.737049L17.9645 7.61413L25.5253 8.71388C26.0275 8.78693 26.4446 9.1387 26.6014 9.62132C26.7583 10.1039 26.6275 10.6337 26.2642 10.988L20.7613 16.3533L21.9992 23.918C22.081 24.418 21.8724 24.9211 21.4609 25.2165C21.0493 25.5119 20.5059 25.5486 20.0584 25.3111L13.3334 21.7427L6.60833 25.3111C6.16082 25.5486 5.61741 25.5119 5.20586 25.2165C4.79431 24.9211 4.58573 24.418 4.66754 23.918L5.90541 16.3533L0.402572 10.988C0.0392312 10.6337 -0.091516 10.1039 0.0652927 9.62132C0.222101 9.1387 0.639278 8.78693 1.14145 8.71388L8.70226 7.61413L12.1408 0.737049C12.3667 0.285336 12.8283 0 13.3334 0ZM13.3334 19.6667L10.6014 12.3111C10.4063 12.7014 10.2071 10.09 9.77529 10.1528L16.6014 14.8111L8.26417 14.9287C8.57575 15.2325 8.17172 12.8817 8.10144 13.3111L12.8334 14.5549L14.7863 14.8367C15.1772 14.6293 13.5675 18.8482 13.9583 19.0555L18.9334 21.6953L16.1014 20.8111C16.0312 20.3817 13.2899 20.197 13.6014 19.8932L22.4689 10.964L12.8334 20.6667C12.4016 20.6039 14.2966 15.7014 14.1014 15.3111L13.3334 19.6667Z" fill="#142251"/>
</g>
<defs>
<filter id="filter0_i_335_20" x="0" y="0" width="26.6667" height="25.4666" filterUnits="userSpaceOnUse" color-interpolation-filters="sRGB">
<feFlood flood-opacity="0" result="BackgroundImageFix"/>
<feBlend mode="normal" in="SourceGraphic" in2="BackgroundImageFix" result="shape"/>
<feColorMatrix in="SourceAlpha" type="matrix" values="0 0 0 0 0 0 0 0 0 0 0 0 0 0 0 0 0 0 127 0" result="hardAlpha"/>
<feOffset/>
<feGaussianBlur stdDeviation="2"/>
<feComposite in2="hardAlpha" operator="arithmetic" k2="-1" k3="1"/>
<feColorMatrix type="matrix" values="0 0 0 0 1 0 0 0 0 1 0 0 0 0 1 0 0 0 1 0"/>
<feBlend mode="normal" in2="shape" result="effect1_innerShadow_335_20"/>
</filter>
</defs>
</svg>
