<svg width="418" height="457" viewBox="0 0 418 457" fill="none" xmlns="http://www.w3.org/2000/svg">
<rect x="111.696" y="0.624125" width="319" height="379" rx="11.5" transform="rotate(16.9633 111.696 0.624125)" fill="white" stroke="#989EB1"/>
<mask id="mask0_0_2577" style="mask-type:alpha" maskUnits="userSpaceOnUse" x="43" y="29" width="348" height="344">
<rect x="121.188" y="26.0278" width="284.602" height="278.116" rx="12" transform="rotate(16.9633 121.188 26.0278)" fill="#E4E7F1"/>
</mask>
<g mask="url(#mask0_0_2577)">
<path d="M190.468 226.116C195.074 249.148 207.354 300.614 213.588 326.463C215.67 335.105 210.581 343.847 202.037 346.313C192.976 348.928 183.558 343.483 181.301 334.327L156.383 233.266C154.235 223.471 160.783 213.889 170.693 212.334C179.916 210.885 188.638 216.961 190.468 226.116Z" fill="#F2F3F8"/>
<path d="M213.617 326.361L234.86 413.159L202.597 421.971L180.975 333.21C178.918 323.83 185.192 314.654 194.678 313.162C203.512 311.777 211.864 317.594 213.617 326.361Z" fill="#F2F3F8"/>
<path d="M147.542 197.895L130.75 198.135L114.404 197.895L82.0684 212.685L86.0638 341.903H175.882L176.338 212.345L147.542 197.895Z" fill="#F2F3F8"/>
<path d="M134.33 234.038C134.33 235.091 133.477 235.946 132.424 235.946C131.369 235.946 130.516 235.091 130.516 234.038C130.516 232.985 131.369 232.132 132.424 232.132C133.477 232.132 134.33 232.985 134.33 234.038Z" fill="#F2F3F8"/>
<path d="M134.33 256.631C134.33 257.686 133.477 258.539 132.424 258.539C131.369 258.539 130.516 257.686 130.516 256.631C130.516 255.578 131.369 254.725 132.424 254.725C133.477 254.725 134.33 255.578 134.33 256.631Z" fill="#F2F3F8"/>
<path d="M134.33 279.225C134.33 280.28 133.477 281.133 132.424 281.133C131.369 281.133 130.516 280.28 130.516 279.225C130.516 278.172 131.369 277.319 132.424 277.319C133.477 277.319 134.33 278.172 134.33 279.225Z" fill="#F2F3F8"/>
<path d="M134.33 301.816C134.33 302.872 133.477 303.725 132.424 303.725C131.369 303.725 130.516 302.872 130.516 301.816C130.516 300.763 131.369 299.91 132.424 299.91C133.477 299.91 134.33 300.763 134.33 301.816Z" fill="#F2F3F8"/>
<path d="M134.33 324.411C134.33 325.466 133.477 326.319 132.424 326.319C131.369 326.319 130.516 325.466 130.516 324.411C130.516 323.357 131.369 322.504 132.424 322.504C133.477 322.504 134.33 323.357 134.33 324.411Z" fill="#F2F3F8"/>
<path d="M69.3924 226.116C64.7864 249.148 52.5065 300.614 46.275 326.463C44.1901 335.105 49.2812 343.847 57.8231 346.313C66.8841 348.928 76.3025 343.483 78.5619 334.327L103.477 233.266C105.626 223.471 99.0774 213.889 89.1696 212.334C79.9469 210.885 71.2242 216.961 69.3924 226.116Z" fill="#F2F3F8"/>
<path d="M46.243 326.361L25 413.159L57.2635 421.971L78.8852 333.21C80.9425 323.83 74.6706 314.654 65.182 313.162C56.3486 311.777 47.9961 317.594 46.243 326.361Z" fill="#F2F3F8"/>
<path d="M179.773 391.027H85.151L86.0637 341.903H175.546L179.773 391.027Z" fill="#F2F3F8"/>
<path d="M84.9323 390.439L82.0495 503.897C81.7049 514.147 89.9234 522.644 100.18 522.644C109.464 522.644 117.251 515.632 118.221 506.396L129.627 393.531C131.016 380.298 120.64 368.775 107.335 368.775C95.2485 368.775 85.3365 378.36 84.9323 390.439Z" fill="#F2F3F8"/>
<path d="M179.612 390.439L184.533 503.897C184.878 514.147 176.659 522.644 166.405 522.644C157.118 522.644 149.332 515.632 148.362 506.396L134.918 393.531C133.529 380.298 143.904 368.775 157.21 368.775C169.296 368.775 179.208 378.36 179.612 390.439Z" fill="#F2F3F8"/>
<path d="M154.59 193.91H146.178L149.171 201.01L154.59 193.91Z" fill="#F2F3F8"/>
<path d="M133.649 218.309C123.933 218.309 116.055 210.431 116.055 200.715V163.271H151.243V200.715C151.243 210.431 143.365 218.309 133.649 218.309Z" fill="#F2F3F8"/>
<path d="M137.306 218.309L126.749 203.632C125.315 201.2 123.358 199.102 121.009 197.475L116.62 194.437C115.691 193.794 114.461 193.735 113.472 194.286L109.044 196.754C108.023 197.324 107.455 198.432 107.606 199.564L109.427 213.265C109.604 214.616 111.321 215.163 112.293 214.18L121.982 204.376C122.52 203.83 123.441 203.902 123.884 204.525L137.306 220.747V218.309Z" fill="#F2F3F8"/>
<path d="M137.307 218.317L153.942 194.438C154.405 193.778 154.427 193.736 155.237 194.287L158.854 196.752C159.69 197.323 160.154 198.431 160.03 199.565L160.581 213.264C160.435 214.617 159.033 215.164 158.237 214.179L151.161 204.426C150.72 203.879 149.967 203.954 149.606 204.575L137.307 220.755V218.317Z" fill="#F2F3F8"/>
<path d="M163.515 116.514C162.107 111.294 158.8 103.926 146.991 98.4307C127.482 89.3506 117.208 108.634 117.208 108.634C111.951 108.062 107.583 109.911 105.079 114.968C102.732 119.706 105.03 128.616 105.741 131.718L110.017 151.397L113.772 132.679C117.461 120.367 123.071 115.353 123.071 115.353L140.9 113.904L159.805 149.605L163.483 128.479C163.951 125.799 164.145 123.069 163.996 120.352C163.911 118.78 163.758 117.414 163.515 116.514Z" fill="#F2F3F8"/>
<path d="M156.517 145.283C156.517 145.283 158.895 141.502 163.802 143.363C168.705 145.223 166.489 157.136 159.129 158.652C159.129 158.652 156.491 159.229 154.424 157.424C154.424 157.424 156.233 148.623 156.517 145.283Z" fill="#F2F3F8"/>
<path d="M110.66 145.149C110.66 145.149 107.755 141.44 103.095 143.36C98.2475 145.362 100.411 157.134 107.769 158.653C107.769 158.653 110.407 159.228 112.475 157.424C112.475 157.424 110.943 148.489 110.66 145.149Z" fill="#F2F3F8"/>
<path d="M104.072 147.565C104.072 147.565 108.18 146.191 111.098 152.246L104.072 147.565Z" fill="#F2F3F8"/>
<path d="M109.103 149.283C109.103 149.283 104.63 151.674 107.586 155.268L109.103 149.283Z" fill="#F2F3F8"/>
<path d="M161.087 133.979C161.089 141.159 160.383 156.186 155.968 165.104C151.824 173.476 144.967 177.984 135.978 178.252C126.992 178.52 120.294 175.055 114.929 164.187C109.561 153.322 109.818 134.113 109.818 134.113C109.818 134.113 109.818 108.458 135.174 108.458C161.88 108.458 161.087 133.979 161.087 133.979Z" fill="#F2F3F8"/>
<path d="M143.983 140.996V152.451C143.983 152.706 143.934 152.95 143.844 153.176C143.493 154.055 142.481 154.476 141.566 154.231L139.596 153.708" fill="#F2F3F8"/>
<path d="M132.951 141.922C132.951 143.243 131.881 144.315 130.558 144.315C129.237 144.315 128.164 143.243 128.164 141.922C128.164 140.601 129.237 139.529 130.558 139.529C131.881 139.529 132.951 140.601 132.951 141.922Z" fill="#F2F3F8"/>
<path d="M135.366 136.163L135.453 131.614L127.017 131.765C125.951 131.784 124.926 132.169 124.109 132.852L119.229 136.948L126.339 135.888L135.366 136.163Z" fill="#F2F3F8"/>
<path d="M148.738 141.923C148.738 143.244 149.808 144.317 151.132 144.317C152.453 144.317 153.525 143.244 153.525 141.923C153.525 140.602 152.453 139.53 151.132 139.53C149.808 139.53 148.738 140.602 148.738 141.923Z" fill="#F2F3F8"/>
<path d="M147.228 136.16L147.207 131.613L153.864 131.679C154.704 131.688 155.511 132.06 156.147 132.737L159.957 136.779L154.355 135.792L147.228 136.16Z" fill="#F2F3F8"/>
<path d="M140.137 158.526C139.113 159.081 138.241 159.394 137.262 159.696C136.305 159.981 135.324 160.175 134.337 160.279C132.365 160.505 130.339 160.271 128.51 159.624C128.131 159.492 127.933 159.077 128.067 158.698C128.184 158.364 128.52 158.171 128.859 158.222L128.884 158.226C130.578 158.479 132.278 158.35 133.869 157.854C134.667 157.613 135.439 157.301 136.173 156.92C136.886 156.552 137.656 156.069 138.164 155.643C138.905 155.016 140.013 155.107 140.639 155.848C141.266 156.588 141.175 157.694 140.434 158.322C140.345 158.396 140.234 158.471 140.137 158.526Z" fill="#F2F3F8"/>
<path d="M145.655 155.794C146.061 156.192 146.716 156.662 147.316 157.018C147.94 157.386 148.599 157.692 149.284 157.928C150.654 158.413 152.139 158.541 153.618 158.277L153.644 158.273C154.014 158.207 154.367 158.454 154.431 158.824C154.488 159.147 154.307 159.458 154.014 159.573C152.395 160.219 150.552 160.439 148.78 160.185C147.891 160.068 147.016 159.858 146.168 159.562C145.302 159.249 144.538 158.93 143.644 158.373C142.87 157.898 142.63 156.883 143.106 156.109C143.583 155.337 144.595 155.094 145.37 155.573C145.47 155.635 145.572 155.715 145.655 155.794Z" fill="#F2F3F8"/>
<path d="M138.67 165.549C138.67 165.549 141.095 166.421 144.567 165.549H138.67Z" fill="#F2F3F8"/>
<path d="M281.468 226.116C286.074 249.148 298.354 300.614 304.588 326.463C306.67 335.105 301.581 343.847 293.037 346.313C283.976 348.928 274.558 343.483 272.301 334.327L247.383 233.266C245.235 223.471 251.783 213.889 261.693 212.334C270.916 210.885 279.638 216.961 281.468 226.116Z" fill="#142251"/>
<path d="M304.617 326.361L325.86 413.159L293.597 421.971L271.975 333.21C269.918 323.83 276.192 314.654 285.678 313.162C294.512 311.777 302.864 317.594 304.617 326.361Z" fill="#142251"/>
<path d="M238.542 197.895L221.75 198.135L205.404 197.895L173.068 212.685L177.064 341.903H266.882L267.338 212.345L238.542 197.895Z" fill="#142251"/>
<path d="M225.33 234.038C225.33 235.091 224.477 235.946 223.424 235.946C222.369 235.946 221.516 235.091 221.516 234.038C221.516 232.985 222.369 232.132 223.424 232.132C224.477 232.132 225.33 232.985 225.33 234.038Z" fill="#142251"/>
<path d="M225.33 256.631C225.33 257.686 224.477 258.539 223.424 258.539C222.369 258.539 221.516 257.686 221.516 256.631C221.516 255.578 222.369 254.725 223.424 254.725C224.477 254.725 225.33 255.578 225.33 256.631Z" fill="#142251"/>
<path d="M225.33 279.225C225.33 280.28 224.477 281.133 223.424 281.133C222.369 281.133 221.516 280.28 221.516 279.225C221.516 278.172 222.369 277.319 223.424 277.319C224.477 277.319 225.33 278.172 225.33 279.225Z" fill="#142251"/>
<path d="M225.33 301.816C225.33 302.872 224.477 303.725 223.424 303.725C222.369 303.725 221.516 302.872 221.516 301.816C221.516 300.763 222.369 299.91 223.424 299.91C224.477 299.91 225.33 300.763 225.33 301.816Z" fill="#142251"/>
<path d="M225.33 324.411C225.33 325.466 224.477 326.319 223.424 326.319C222.369 326.319 221.516 325.466 221.516 324.411C221.516 323.357 222.369 322.504 223.424 322.504C224.477 322.504 225.33 323.357 225.33 324.411Z" fill="#142251"/>
<path d="M160.392 226.116C155.786 249.148 143.506 300.614 137.275 326.463C135.19 335.105 140.281 343.847 148.823 346.313C157.884 348.928 167.303 343.483 169.562 334.327L194.477 233.266C196.626 223.471 190.077 213.889 180.17 212.334C170.947 210.885 162.224 216.961 160.392 226.116Z" fill="#142251"/>
<path d="M137.243 326.361L116 413.159L148.263 421.971L169.885 333.21C171.942 323.83 165.671 314.654 156.182 313.162C147.349 311.777 138.996 317.594 137.243 326.361Z" fill="#142251"/>
<path d="M270.773 391.027H176.151L177.064 341.903H266.546L270.773 391.027Z" fill="#142251"/>
<path d="M175.932 390.439L173.05 503.897C172.705 514.147 180.923 522.644 191.18 522.644C200.464 522.644 208.251 515.632 209.221 506.396L220.627 393.531C222.016 380.298 211.64 368.775 198.335 368.775C186.248 368.775 176.336 378.36 175.932 390.439Z" fill="#142251"/>
<path d="M270.612 390.439L275.533 503.897C275.878 514.147 267.659 522.644 257.405 522.644C248.118 522.644 240.332 515.632 239.362 506.396L225.918 393.531C224.529 380.298 234.904 368.775 248.21 368.775C260.296 368.775 270.208 378.36 270.612 390.439Z" fill="#142251"/>
<path d="M245.59 193.91H237.178L240.171 201.01L245.59 193.91Z" fill="#142251"/>
<path d="M224.649 218.309C214.933 218.309 207.055 210.431 207.055 200.715V163.271H242.243V200.715C242.243 210.431 234.365 218.309 224.649 218.309Z" fill="#142251"/>
<path d="M228.306 218.309L217.749 203.632C216.315 201.2 214.358 199.102 212.009 197.475L207.62 194.437C206.691 193.794 205.461 193.735 204.472 194.286L200.044 196.754C199.023 197.324 198.455 198.432 198.606 199.564L200.427 213.265C200.604 214.616 202.321 215.163 203.293 214.18L212.982 204.376C213.52 203.83 214.441 203.902 214.884 204.525L228.306 220.747V218.309Z" fill="#142251"/>
<path d="M228.307 218.317L244.942 194.438C245.405 193.778 245.427 193.736 246.237 194.287L249.854 196.752C250.69 197.323 251.154 198.431 251.03 199.565L251.581 213.264C251.435 214.617 250.033 215.164 249.237 214.179L242.161 204.426C241.72 203.879 240.967 203.954 240.606 204.575L228.307 220.755V218.317Z" fill="#142251"/>
<path d="M254.515 116.514C253.107 111.294 249.8 103.926 237.991 98.4307C218.482 89.3506 208.208 108.634 208.208 108.634C202.951 108.062 198.583 109.911 196.079 114.968C193.732 119.706 196.03 128.616 196.741 131.718L201.017 151.397L204.772 132.679C208.461 120.367 214.071 115.353 214.071 115.353L231.9 113.904L250.805 149.605L254.483 128.479C254.951 125.799 255.145 123.069 254.996 120.352C254.911 118.78 254.758 117.414 254.515 116.514Z" fill="#142251"/>
<path d="M247.517 145.283C247.517 145.283 249.895 141.502 254.802 143.363C259.705 145.223 257.489 157.136 250.129 158.652C250.129 158.652 247.491 159.229 245.424 157.424C245.424 157.424 247.233 148.623 247.517 145.283Z" fill="#142251"/>
<path d="M201.66 145.149C201.66 145.149 198.755 141.44 194.095 143.36C189.248 145.362 191.411 157.134 198.769 158.653C198.769 158.653 201.407 159.228 203.475 157.424C203.475 157.424 201.943 148.489 201.66 145.149Z" fill="#142251"/>
<path d="M195.072 147.565C195.072 147.565 199.18 146.191 202.098 152.246L195.072 147.565Z" fill="#142251"/>
<path d="M200.103 149.283C200.103 149.283 195.63 151.674 198.586 155.268L200.103 149.283Z" fill="#142251"/>
<path d="M252.087 133.979C252.089 141.159 251.383 156.186 246.968 165.104C242.824 173.476 235.967 177.984 226.978 178.252C217.992 178.52 211.294 175.055 205.929 164.187C200.561 153.322 200.818 134.113 200.818 134.113C200.818 134.113 200.818 108.458 226.174 108.458C252.88 108.458 252.087 133.979 252.087 133.979Z" fill="#142251"/>
<path d="M234.983 140.996V152.451C234.983 152.706 234.934 152.95 234.844 153.176C234.493 154.055 233.481 154.476 232.566 154.231L230.596 153.708" fill="#142251"/>
<path d="M223.951 141.922C223.951 143.243 222.881 144.315 221.558 144.315C220.237 144.315 219.164 143.243 219.164 141.922C219.164 140.601 220.237 139.529 221.558 139.529C222.881 139.529 223.951 140.601 223.951 141.922Z" fill="#142251"/>
<path d="M226.366 136.163L226.453 131.614L218.017 131.765C216.951 131.784 215.926 132.169 215.109 132.852L210.229 136.948L217.339 135.888L226.366 136.163Z" fill="#142251"/>
<path d="M239.738 141.923C239.738 143.244 240.808 144.317 242.132 144.317C243.453 144.317 244.525 143.244 244.525 141.923C244.525 140.602 243.453 139.53 242.132 139.53C240.808 139.53 239.738 140.602 239.738 141.923Z" fill="#142251"/>
<path d="M238.228 136.16L238.207 131.613L244.864 131.679C245.704 131.688 246.511 132.06 247.147 132.737L250.957 136.779L245.355 135.792L238.228 136.16Z" fill="#142251"/>
<path d="M231.137 158.526C230.113 159.081 229.241 159.394 228.262 159.696C227.305 159.981 226.324 160.175 225.337 160.279C223.365 160.505 221.339 160.271 219.51 159.624C219.131 159.492 218.933 159.077 219.067 158.698C219.184 158.364 219.52 158.171 219.859 158.222L219.884 158.226C221.578 158.479 223.278 158.35 224.869 157.854C225.667 157.613 226.439 157.301 227.173 156.92C227.886 156.552 228.656 156.069 229.164 155.643C229.905 155.016 231.013 155.107 231.639 155.848C232.266 156.588 232.175 157.694 231.434 158.322C231.345 158.396 231.234 158.471 231.137 158.526Z" fill="#142251"/>
<path d="M236.655 155.794C237.061 156.192 237.716 156.662 238.316 157.018C238.94 157.386 239.599 157.692 240.284 157.928C241.654 158.413 243.139 158.541 244.618 158.277L244.644 158.273C245.014 158.207 245.367 158.454 245.431 158.824C245.488 159.147 245.307 159.458 245.014 159.573C243.395 160.219 241.552 160.439 239.78 160.185C238.891 160.068 238.016 159.858 237.168 159.562C236.302 159.249 235.538 158.93 234.644 158.373C233.87 157.898 233.63 156.883 234.106 156.109C234.583 155.337 235.595 155.094 236.37 155.573C236.47 155.635 236.572 155.715 236.655 155.794Z" fill="#142251"/>
<path d="M229.67 165.549C229.67 165.549 232.095 166.421 235.567 165.549H229.67Z" fill="#142251"/>
<path d="M364.468 226.116C369.074 249.148 381.354 300.614 387.588 326.463C389.67 335.105 384.581 343.847 376.037 346.313C366.976 348.928 357.558 343.483 355.301 334.327L330.383 233.266C328.235 223.471 334.783 213.889 344.693 212.334C353.916 210.885 362.638 216.961 364.468 226.116Z" fill="#E4E7F1"/>
<path d="M387.617 326.361L408.86 413.159L376.597 421.971L354.975 333.21C352.918 323.83 359.192 314.654 368.678 313.162C377.512 311.777 385.864 317.594 387.617 326.361Z" fill="#E4E7F1"/>
<path d="M321.542 197.895L304.75 198.135L288.404 197.895L256.068 212.685L260.064 341.903H349.882L350.338 212.345L321.542 197.895Z" fill="#E4E7F1"/>
<path d="M308.33 234.038C308.33 235.091 307.477 235.946 306.424 235.946C305.369 235.946 304.516 235.091 304.516 234.038C304.516 232.985 305.369 232.132 306.424 232.132C307.477 232.132 308.33 232.985 308.33 234.038Z" fill="#E4E7F1"/>
<path d="M308.33 256.631C308.33 257.686 307.477 258.539 306.424 258.539C305.369 258.539 304.516 257.686 304.516 256.631C304.516 255.578 305.369 254.725 306.424 254.725C307.477 254.725 308.33 255.578 308.33 256.631Z" fill="#E4E7F1"/>
<path d="M308.33 279.225C308.33 280.28 307.477 281.133 306.424 281.133C305.369 281.133 304.516 280.28 304.516 279.225C304.516 278.172 305.369 277.319 306.424 277.319C307.477 277.319 308.33 278.172 308.33 279.225Z" fill="#E4E7F1"/>
<path d="M308.33 301.816C308.33 302.872 307.477 303.725 306.424 303.725C305.369 303.725 304.516 302.872 304.516 301.816C304.516 300.763 305.369 299.91 306.424 299.91C307.477 299.91 308.33 300.763 308.33 301.816Z" fill="#E4E7F1"/>
<path d="M308.33 324.411C308.33 325.466 307.477 326.319 306.424 326.319C305.369 326.319 304.516 325.466 304.516 324.411C304.516 323.357 305.369 322.504 306.424 322.504C307.477 322.504 308.33 323.357 308.33 324.411Z" fill="#E4E7F1"/>
<path d="M243.392 226.116C238.786 249.148 226.506 300.614 220.275 326.463C218.19 335.105 223.281 343.847 231.823 346.313C240.884 348.928 250.303 343.483 252.562 334.327L277.477 233.266C279.626 223.471 273.077 213.889 263.17 212.334C253.947 210.885 245.224 216.961 243.392 226.116Z" fill="#E4E7F1"/>
<path d="M220.243 326.361L199 413.159L231.263 421.971L252.885 333.21C254.942 323.83 248.671 314.654 239.182 313.162C230.349 311.777 221.996 317.594 220.243 326.361Z" fill="#E4E7F1"/>
<path d="M353.773 391.027H259.151L260.064 341.903H349.546L353.773 391.027Z" fill="#E4E7F1"/>
<path d="M258.932 390.439L256.05 503.897C255.705 514.147 263.923 522.644 274.18 522.644C283.464 522.644 291.251 515.632 292.221 506.396L303.627 393.531C305.016 380.298 294.64 368.775 281.335 368.775C269.248 368.775 259.336 378.36 258.932 390.439Z" fill="#E4E7F1"/>
<path d="M353.612 390.439L358.533 503.897C358.878 514.147 350.659 522.644 340.405 522.644C331.118 522.644 323.332 515.632 322.362 506.396L308.918 393.531C307.529 380.298 317.904 368.775 331.21 368.775C343.296 368.775 353.208 378.36 353.612 390.439Z" fill="#E4E7F1"/>
<path d="M328.59 193.91H320.178L323.171 201.01L328.59 193.91Z" fill="#E4E7F1"/>
<path d="M307.649 218.309C297.933 218.309 290.055 210.431 290.055 200.715V163.271H325.243V200.715C325.243 210.431 317.365 218.309 307.649 218.309Z" fill="#E4E7F1"/>
<path d="M311.306 218.309L300.749 203.632C299.315 201.2 297.358 199.102 295.009 197.475L290.62 194.437C289.691 193.794 288.461 193.735 287.472 194.286L283.044 196.754C282.023 197.324 281.455 198.432 281.606 199.564L283.427 213.265C283.604 214.616 285.321 215.163 286.293 214.18L295.982 204.376C296.52 203.83 297.441 203.902 297.884 204.525L311.306 220.747V218.309Z" fill="#E4E7F1"/>
<path d="M311.307 218.317L327.942 194.438C328.405 193.778 328.427 193.736 329.237 194.287L332.854 196.752C333.69 197.323 334.154 198.431 334.03 199.565L334.581 213.264C334.435 214.617 333.033 215.164 332.237 214.179L325.161 204.426C324.72 203.879 323.967 203.954 323.606 204.575L311.307 220.755V218.317Z" fill="#E4E7F1"/>
<path d="M337.515 116.514C336.107 111.294 332.8 103.926 320.991 98.4307C301.482 89.3506 291.208 108.634 291.208 108.634C285.951 108.062 281.583 109.911 279.079 114.968C276.732 119.706 279.03 128.616 279.741 131.718L284.017 151.397L287.772 132.679C291.461 120.367 297.071 115.353 297.071 115.353L314.9 113.904L333.805 149.605L337.483 128.479C337.951 125.799 338.145 123.069 337.996 120.352C337.911 118.78 337.758 117.414 337.515 116.514Z" fill="#E4E7F1"/>
<path d="M330.517 145.283C330.517 145.283 332.895 141.502 337.802 143.363C342.705 145.223 340.489 157.136 333.129 158.652C333.129 158.652 330.491 159.229 328.424 157.424C328.424 157.424 330.233 148.623 330.517 145.283Z" fill="#E4E7F1"/>
<path d="M284.66 145.149C284.66 145.149 281.755 141.44 277.095 143.36C272.248 145.362 274.411 157.134 281.769 158.653C281.769 158.653 284.407 159.228 286.475 157.424C286.475 157.424 284.943 148.489 284.66 145.149Z" fill="#E4E7F1"/>
<path d="M278.072 147.565C278.072 147.565 282.18 146.191 285.098 152.246L278.072 147.565Z" fill="#E4E7F1"/>
<path d="M283.103 149.283C283.103 149.283 278.63 151.674 281.586 155.268L283.103 149.283Z" fill="#E4E7F1"/>
<path d="M335.087 133.979C335.089 141.159 334.383 156.186 329.968 165.104C325.824 173.476 318.967 177.984 309.978 178.252C300.992 178.52 294.294 175.055 288.929 164.187C283.561 153.322 283.818 134.113 283.818 134.113C283.818 134.113 283.818 108.458 309.174 108.458C335.88 108.458 335.087 133.979 335.087 133.979Z" fill="#E4E7F1"/>
<path d="M317.983 140.996V152.451C317.983 152.706 317.934 152.95 317.844 153.176C317.493 154.055 316.481 154.476 315.566 154.231L313.596 153.708" fill="#E4E7F1"/>
<path d="M306.951 141.922C306.951 143.243 305.881 144.315 304.558 144.315C303.237 144.315 302.164 143.243 302.164 141.922C302.164 140.601 303.237 139.529 304.558 139.529C305.881 139.529 306.951 140.601 306.951 141.922Z" fill="#E4E7F1"/>
<path d="M309.366 136.163L309.453 131.614L301.017 131.765C299.951 131.784 298.926 132.169 298.109 132.852L293.229 136.948L300.339 135.888L309.366 136.163Z" fill="#E4E7F1"/>
<path d="M322.738 141.923C322.738 143.244 323.808 144.317 325.132 144.317C326.453 144.317 327.525 143.244 327.525 141.923C327.525 140.602 326.453 139.53 325.132 139.53C323.808 139.53 322.738 140.602 322.738 141.923Z" fill="#E4E7F1"/>
<path d="M321.228 136.16L321.207 131.613L327.864 131.679C328.704 131.688 329.511 132.06 330.147 132.737L333.957 136.779L328.355 135.792L321.228 136.16Z" fill="#E4E7F1"/>
<path d="M314.137 158.526C313.113 159.081 312.241 159.394 311.262 159.696C310.305 159.981 309.324 160.175 308.337 160.279C306.365 160.505 304.339 160.271 302.51 159.624C302.131 159.492 301.933 159.077 302.067 158.698C302.184 158.364 302.52 158.171 302.859 158.222L302.884 158.226C304.578 158.479 306.278 158.35 307.869 157.854C308.667 157.613 309.439 157.301 310.173 156.92C310.886 156.552 311.656 156.069 312.164 155.643C312.905 155.016 314.013 155.107 314.639 155.848C315.266 156.588 315.175 157.694 314.434 158.322C314.345 158.396 314.234 158.471 314.137 158.526Z" fill="#E4E7F1"/>
<path d="M319.655 155.794C320.061 156.192 320.716 156.662 321.316 157.018C321.94 157.386 322.599 157.692 323.284 157.928C324.654 158.413 326.139 158.541 327.618 158.277L327.644 158.273C328.014 158.207 328.367 158.454 328.431 158.824C328.488 159.147 328.307 159.458 328.014 159.573C326.395 160.219 324.552 160.439 322.78 160.185C321.891 160.068 321.016 159.858 320.168 159.562C319.302 159.249 318.538 158.93 317.644 158.373C316.87 157.898 316.63 156.883 317.106 156.109C317.583 155.337 318.595 155.094 319.37 155.573C319.47 155.635 319.572 155.715 319.655 155.794Z" fill="#E4E7F1"/>
<path d="M312.67 165.549C312.67 165.549 315.095 166.421 318.567 165.549H312.67Z" fill="#E4E7F1"/>
<path d="M114.04 338.519L111.496 337.744L111.81 336.717L114.353 337.493C114.846 337.643 115.268 337.686 115.621 337.622C115.974 337.559 116.263 337.408 116.488 337.172C116.717 336.937 116.886 336.641 116.995 336.283C117.094 335.956 117.116 335.627 117.06 335.295C117.008 334.965 116.857 334.666 116.605 334.399C116.354 334.127 115.982 333.916 115.49 333.766L113.241 333.08L110.652 341.567L109.39 341.182L112.294 331.662L115.805 332.733C116.524 332.952 117.094 333.262 117.516 333.662C117.937 334.062 118.209 334.521 118.332 335.04C118.456 335.554 118.432 336.093 118.261 336.655C118.075 337.265 117.787 337.747 117.398 338.1C117.009 338.453 116.532 338.667 115.966 338.742C115.401 338.813 114.759 338.739 114.04 338.519ZM118.298 340.118L118.344 339.968C118.499 339.458 118.718 339.008 118.999 338.617C119.281 338.222 119.611 337.906 119.989 337.668C120.367 337.426 120.782 337.277 121.233 337.219C121.686 337.157 122.158 337.201 122.651 337.351C123.148 337.503 123.567 337.73 123.908 338.035C124.254 338.336 124.517 338.692 124.696 339.104C124.881 339.513 124.981 339.96 124.995 340.446C125.01 340.927 124.94 341.422 124.784 341.932L124.738 342.083C124.583 342.593 124.364 343.043 124.083 343.434C123.802 343.825 123.47 344.14 123.087 344.381C122.709 344.618 122.294 344.768 121.842 344.83C121.395 344.889 120.923 344.843 120.426 344.691C119.929 344.54 119.51 344.314 119.168 344.014C118.827 343.71 118.564 343.354 118.379 342.945C118.2 342.533 118.103 342.086 118.087 341.605C118.072 341.124 118.142 340.628 118.298 340.118ZM119.553 340.337L119.507 340.487C119.4 340.84 119.339 341.186 119.326 341.526C119.315 341.86 119.355 342.173 119.448 342.463C119.545 342.755 119.698 343.009 119.909 343.225C120.12 343.438 120.394 343.595 120.729 343.697C121.061 343.798 121.371 343.819 121.661 343.76C121.956 343.698 122.223 343.572 122.462 343.383C122.701 343.193 122.909 342.957 123.086 342.672C123.269 342.385 123.414 342.065 123.522 341.712L123.568 341.562C123.674 341.213 123.731 340.87 123.738 340.534C123.751 340.195 123.709 339.88 123.612 339.588C123.521 339.294 123.37 339.038 123.16 338.821C122.954 338.606 122.683 338.447 122.348 338.345C122.017 338.244 121.703 338.224 121.408 338.287C121.117 338.351 120.849 338.479 120.605 338.671C120.366 338.86 120.157 339.099 119.979 339.387C119.801 339.672 119.66 339.988 119.553 340.337ZM129.578 336.362L126.514 346.405L125.298 346.034L128.362 335.991L129.578 336.362ZM132.997 347.061L134.108 343.419C134.193 343.14 134.21 342.88 134.159 342.641C134.114 342.398 133.997 342.187 133.81 342.005C133.622 341.824 133.365 341.684 133.038 341.584C132.733 341.491 132.449 341.462 132.186 341.496C131.927 341.531 131.706 341.614 131.524 341.744C131.346 341.876 131.227 342.039 131.167 342.236L129.957 341.867C130.034 341.614 130.176 341.383 130.383 341.175C130.589 340.966 130.845 340.799 131.15 340.673C131.461 340.543 131.807 340.473 132.187 340.46C132.573 340.444 132.98 340.502 133.407 340.632C133.921 340.789 134.348 341.014 134.687 341.308C135.031 341.604 135.26 341.962 135.374 342.383C135.495 342.801 135.474 343.273 135.313 343.801L134.308 347.096C134.236 347.331 134.179 347.588 134.138 347.866C134.1 348.145 134.094 348.393 134.118 348.61L134.086 348.715L132.824 348.33C132.805 348.172 132.814 347.972 132.85 347.73C132.887 347.484 132.936 347.261 132.997 347.061ZM134.145 344.045L133.899 344.899L132.677 344.526C132.332 344.421 132.016 344.355 131.729 344.33C131.442 344.299 131.191 344.311 130.975 344.364C130.759 344.417 130.577 344.512 130.431 344.648C130.286 344.78 130.18 344.955 130.113 345.173C130.046 345.396 130.034 345.614 130.078 345.827C130.123 346.041 130.229 346.233 130.396 346.403C130.569 346.57 130.803 346.699 131.1 346.789C131.47 346.902 131.821 346.923 132.152 346.853C132.484 346.782 132.767 346.659 133.001 346.483C133.241 346.308 133.399 346.116 133.477 345.906L133.817 346.646C133.73 346.82 133.586 346.997 133.383 347.178C133.18 347.359 132.934 347.518 132.644 347.653C132.361 347.786 132.044 347.873 131.693 347.914C131.348 347.951 130.984 347.912 130.6 347.795C130.121 347.648 129.729 347.426 129.424 347.129C129.124 346.832 128.921 346.496 128.816 346.121C128.717 345.743 128.728 345.358 128.847 344.966C128.963 344.587 129.139 344.276 129.375 344.033C129.612 343.786 129.899 343.61 130.237 343.503C130.576 343.392 130.957 343.346 131.38 343.365C131.802 343.385 132.256 343.468 132.74 343.616L134.145 344.045ZM138.769 343.625L136.95 349.588L135.74 349.219L137.898 342.145L139.075 342.504L138.769 343.625ZM141.33 343.149L140.98 344.271C140.887 344.219 140.795 344.177 140.704 344.144C140.62 344.109 140.521 344.074 140.408 344.04C140.129 343.954 139.869 343.923 139.629 343.945C139.389 343.967 139.171 344.034 138.975 344.146C138.778 344.257 138.604 344.409 138.45 344.6C138.302 344.788 138.176 345.007 138.071 345.256L137.671 345.349C137.802 344.922 137.965 344.533 138.162 344.184C138.364 343.835 138.598 343.545 138.864 343.311C139.132 343.074 139.428 342.916 139.752 342.839C140.081 342.758 140.438 342.777 140.822 342.894C140.909 342.92 141.006 342.962 141.112 343.018C141.22 343.07 141.293 343.114 141.33 343.149ZM140.882 347.007L140.928 346.857C141.083 346.347 141.302 345.896 141.583 345.506C141.865 345.111 142.195 344.794 142.573 344.557C142.951 344.315 143.366 344.165 143.817 344.108C144.27 344.046 144.742 344.09 145.235 344.24C145.732 344.391 146.151 344.619 146.492 344.923C146.838 345.224 147.101 345.581 147.28 345.993C147.465 346.402 147.565 346.849 147.579 347.335C147.594 347.816 147.524 348.311 147.368 348.821L147.322 348.972C147.167 349.482 146.948 349.932 146.667 350.323C146.386 350.713 146.054 351.029 145.671 351.27C145.293 351.507 144.878 351.657 144.426 351.719C143.979 351.778 143.507 351.732 143.01 351.58C142.513 351.428 142.094 351.203 141.752 350.903C141.411 350.599 141.148 350.243 140.963 349.834C140.784 349.421 140.687 348.975 140.671 348.494C140.656 348.013 140.726 347.517 140.882 347.007ZM142.137 347.226L142.091 347.376C141.984 347.729 141.923 348.075 141.91 348.414C141.899 348.749 141.939 349.062 142.032 349.352C142.129 349.644 142.282 349.898 142.493 350.114C142.704 350.327 142.978 350.484 143.313 350.586C143.645 350.687 143.955 350.708 144.245 350.649C144.54 350.586 144.807 350.461 145.046 350.271C145.285 350.082 145.493 349.845 145.67 349.561C145.853 349.274 145.998 348.954 146.106 348.601L146.152 348.45C146.258 348.102 146.315 347.759 146.322 347.423C146.335 347.084 146.293 346.769 146.196 346.477C146.105 346.182 145.954 345.927 145.744 345.71C145.538 345.495 145.268 345.336 144.932 345.234C144.601 345.133 144.287 345.113 143.992 345.176C143.701 345.239 143.433 345.367 143.189 345.56C142.95 345.749 142.741 345.988 142.563 346.276C142.385 346.561 142.244 346.877 142.137 347.226ZM151.256 346.219L149.098 353.294L147.882 352.923L150.04 345.849L151.256 346.219ZM150.521 343.944C150.581 343.748 150.69 343.6 150.849 343.501C151.012 343.403 151.212 343.39 151.447 343.462C151.678 343.532 151.834 343.654 151.915 343.826C152 344 152.013 344.185 151.953 344.381C151.896 344.568 151.783 344.71 151.616 344.807C151.454 344.9 151.257 344.912 151.026 344.841C150.791 344.77 150.632 344.65 150.55 344.482C150.474 344.311 150.464 344.131 150.521 343.944ZM155.918 353.874L158.563 345.204L159.779 345.575L156.716 355.618L155.604 355.279L155.918 353.874ZM151.795 350.336L151.836 350.199C152.001 349.658 152.216 349.188 152.481 348.787C152.752 348.384 153.058 348.06 153.399 347.817C153.745 347.574 154.113 347.42 154.505 347.353C154.903 347.284 155.313 347.314 155.736 347.443C156.181 347.579 156.545 347.775 156.828 348.033C157.117 348.288 157.332 348.599 157.473 348.966C157.619 349.33 157.696 349.74 157.705 350.195C157.714 350.65 157.665 351.147 157.558 351.686L157.374 352.288C157.168 352.792 156.932 353.23 156.666 353.601C156.405 353.974 156.112 354.271 155.787 354.491C155.467 354.713 155.115 354.851 154.732 354.905C154.35 354.955 153.934 354.912 153.485 354.775C153.071 354.649 152.719 354.444 152.429 354.16C152.144 353.878 151.926 353.537 151.776 353.139C151.63 352.742 151.556 352.305 151.554 351.828C151.557 351.347 151.638 350.85 151.795 350.336ZM153.053 350.57L153.011 350.707C152.903 351.06 152.837 351.402 152.812 351.733C152.792 352.065 152.822 352.372 152.903 352.654C152.984 352.936 153.121 353.18 153.315 353.387C153.511 353.589 153.772 353.741 154.099 353.84C154.5 353.963 154.855 353.978 155.164 353.887C155.477 353.796 155.755 353.636 155.997 353.405C156.239 353.173 156.454 352.908 156.641 352.607L157.121 351.032C157.142 350.776 157.136 350.522 157.104 350.269C157.077 350.013 157.012 349.774 156.908 349.551C156.81 349.326 156.664 349.127 156.469 348.953C156.278 348.781 156.031 348.648 155.726 348.555C155.394 348.454 155.087 348.436 154.805 348.503C154.529 348.566 154.277 348.694 154.052 348.887C153.827 349.076 153.63 349.316 153.46 349.608C153.296 349.896 153.16 350.216 153.053 350.57ZM169.34 349.048L169.444 349.08L169.131 350.107L169.027 350.075C168.386 349.879 167.818 349.82 167.323 349.898C166.828 349.971 166.402 350.144 166.043 350.415C165.685 350.683 165.383 351.015 165.138 351.412C164.898 351.81 164.71 352.231 164.574 352.676L164.147 354.075C164.018 354.498 163.954 354.888 163.955 355.246C163.956 355.599 164.011 355.913 164.117 356.189C164.224 356.464 164.369 356.692 164.552 356.872C164.74 357.053 164.954 357.18 165.193 357.253C165.472 357.338 165.737 357.362 165.987 357.324C166.238 357.281 166.467 357.186 166.673 357.04C166.886 356.89 167.072 356.694 167.231 356.453C167.391 356.211 167.519 355.93 167.616 355.612C167.703 355.329 167.751 355.046 167.761 354.763C167.772 354.476 167.737 354.208 167.656 353.959C167.576 353.706 167.445 353.487 167.263 353.303C167.087 353.116 166.85 352.977 166.554 352.887C166.218 352.784 165.879 352.771 165.536 352.848C165.2 352.922 164.897 353.063 164.628 353.271C164.365 353.477 164.174 353.731 164.053 354.032L163.414 353.83C163.624 353.361 163.865 352.979 164.135 352.685C164.412 352.388 164.707 352.169 165.022 352.027C165.343 351.881 165.673 351.806 166.013 351.8C166.359 351.791 166.706 351.84 167.055 351.946C167.53 352.091 167.913 352.306 168.203 352.589C168.492 352.873 168.703 353.199 168.833 353.568C168.965 353.932 169.026 354.318 169.016 354.724C169.012 355.128 168.951 355.526 168.831 355.918C168.694 356.367 168.502 356.769 168.256 357.122C168.01 357.476 167.716 357.763 167.372 357.982C167.033 358.203 166.656 358.34 166.239 358.394C165.822 358.448 165.372 358.401 164.888 358.253C164.374 358.097 163.957 357.855 163.637 357.529C163.319 357.198 163.087 356.818 162.942 356.388C162.797 355.957 162.727 355.507 162.732 355.037C162.737 354.567 162.807 354.11 162.943 353.665L163.117 353.096C163.321 352.425 163.59 351.787 163.922 351.183C164.254 350.579 164.665 350.067 165.156 349.644C165.651 349.224 166.242 348.949 166.929 348.82C167.617 348.692 168.42 348.768 169.34 349.048ZM176.982 355.767L176.539 357.219C176.301 357.999 176.03 358.636 175.727 359.13C175.424 359.623 175.092 359.994 174.731 360.241C174.369 360.488 173.981 360.629 173.565 360.664C173.155 360.697 172.719 360.642 172.257 360.501C171.891 360.39 171.567 360.241 171.286 360.055C171.004 359.869 170.77 359.638 170.582 359.361C170.401 359.082 170.272 358.752 170.198 358.372C170.123 357.992 170.111 357.555 170.162 357.061C170.213 356.566 170.333 356.007 170.523 355.384L170.966 353.932C171.204 353.152 171.473 352.52 171.774 352.035C172.078 351.551 172.41 351.19 172.769 350.952C173.129 350.709 173.513 350.574 173.922 350.546C174.335 350.519 174.77 350.576 175.228 350.716C175.598 350.829 175.924 350.978 176.206 351.164C176.493 351.347 176.729 351.574 176.913 351.844C177.099 352.111 177.227 352.431 177.299 352.805C177.376 353.177 177.39 353.607 177.341 354.097C177.291 354.587 177.172 355.144 176.982 355.767ZM175.263 357.044L175.827 355.194C175.957 354.767 176.046 354.384 176.092 354.045C176.144 353.704 176.157 353.403 176.131 353.142C176.106 352.882 176.041 352.657 175.937 352.468C175.837 352.281 175.701 352.125 175.529 352.001C175.363 351.874 175.162 351.775 174.927 351.703C174.639 351.615 174.367 351.592 174.112 351.633C173.857 351.67 173.619 351.78 173.396 351.965C173.177 352.151 172.971 352.419 172.779 352.77C172.586 353.121 172.408 353.565 172.244 354.101L171.68 355.951C171.549 356.378 171.458 356.763 171.407 357.104C171.359 357.447 171.349 357.754 171.376 358.024C171.405 358.29 171.467 358.521 171.565 358.718C171.662 358.914 171.793 359.078 171.958 359.209C172.128 359.338 172.329 359.437 172.56 359.507C172.857 359.598 173.133 359.62 173.39 359.575C173.647 359.529 173.886 359.409 174.108 359.215C174.335 359.017 174.543 358.74 174.733 358.383C174.924 358.022 175.101 357.576 175.263 357.044ZM184.514 358.065L184.071 359.517C183.833 360.297 183.563 360.934 183.26 361.427C182.957 361.921 182.624 362.291 182.263 362.538C181.902 362.786 181.513 362.927 181.098 362.962C180.688 362.994 180.252 362.94 179.789 362.799C179.423 362.687 179.099 362.538 178.818 362.352C178.536 362.166 178.302 361.935 178.115 361.659C177.933 361.38 177.805 361.05 177.73 360.67C177.656 360.29 177.644 359.853 177.694 359.358C177.745 358.864 177.866 358.305 178.056 357.682L178.498 356.23C178.736 355.45 179.006 354.817 179.306 354.332C179.611 353.849 179.942 353.488 180.301 353.249C180.661 353.007 181.045 352.871 181.454 352.843C181.867 352.817 182.302 352.874 182.76 353.013C183.131 353.126 183.457 353.276 183.738 353.462C184.025 353.645 184.261 353.871 184.446 354.142C184.631 354.408 184.76 354.729 184.831 355.103C184.909 355.474 184.923 355.905 184.873 356.395C184.824 356.885 184.704 357.442 184.514 358.065ZM182.795 359.342L183.36 357.491C183.49 357.064 183.578 356.681 183.624 356.343C183.676 356.001 183.689 355.7 183.664 355.44C183.638 355.18 183.573 354.955 183.469 354.766C183.369 354.578 183.233 354.422 183.061 354.299C182.895 354.172 182.694 354.072 182.459 354.001C182.171 353.913 181.9 353.889 181.644 353.931C181.39 353.967 181.151 354.078 180.928 354.263C180.71 354.448 180.504 354.717 180.311 355.068C180.118 355.419 179.94 355.862 179.776 356.398L179.212 358.249C179.082 358.676 178.991 359.06 178.939 359.402C178.891 359.745 178.881 360.051 178.908 360.322C178.937 360.588 179 360.819 179.097 361.015C179.194 361.212 179.325 361.376 179.49 361.507C179.661 361.635 179.862 361.734 180.093 361.805C180.389 361.895 180.666 361.918 180.923 361.872C181.179 361.827 181.419 361.707 181.64 361.512C181.867 361.315 182.075 361.038 182.265 360.681C182.456 360.32 182.633 359.874 182.795 359.342ZM192.188 356.032L189.284 365.552L188.022 365.167L190.926 355.647L192.188 356.032ZM194.87 361.531L194.555 362.564L190.292 361.264L190.607 360.231L194.87 361.531ZM196.824 357.446L196.509 358.479L191.598 356.981L191.913 355.948L196.824 357.446ZM195.832 363.768L195.877 363.618C196.033 363.108 196.251 362.658 196.532 362.267C196.815 361.872 197.145 361.556 197.522 361.318C197.901 361.076 198.316 360.927 198.767 360.869C199.22 360.807 199.692 360.851 200.185 361.001C200.682 361.153 201.101 361.381 201.441 361.685C201.788 361.986 202.051 362.342 202.23 362.754C202.415 363.163 202.514 363.61 202.528 364.096C202.544 364.577 202.473 365.073 202.318 365.583L202.272 365.733C202.116 366.243 201.898 366.693 201.617 367.084C201.336 367.475 201.004 367.79 200.62 368.031C200.243 368.268 199.828 368.418 199.376 368.48C198.929 368.539 198.457 368.493 197.96 368.341C197.463 368.19 197.044 367.964 196.701 367.664C196.361 367.36 196.098 367.004 195.913 366.595C195.734 366.183 195.636 365.736 195.621 365.255C195.606 364.774 195.676 364.278 195.832 363.768ZM197.087 363.987L197.041 364.137C196.933 364.491 196.873 364.837 196.86 365.176C196.849 365.51 196.889 365.823 196.982 366.113C197.078 366.405 197.232 366.659 197.442 366.876C197.654 367.088 197.928 367.245 198.263 367.348C198.594 367.449 198.905 367.469 199.195 367.41C199.49 367.348 199.757 367.222 199.996 367.033C200.235 366.844 200.443 366.607 200.62 366.323C200.803 366.035 200.948 365.715 201.056 365.362L201.102 365.212C201.208 364.863 201.265 364.521 201.272 364.184C201.285 363.845 201.243 363.53 201.146 363.238C201.055 362.944 200.904 362.688 200.694 362.472C200.488 362.256 200.217 362.097 199.882 361.995C199.55 361.894 199.237 361.875 198.942 361.937C198.651 362.001 198.383 362.129 198.138 362.321C197.9 362.51 197.691 362.749 197.512 363.038C197.335 363.322 197.193 363.638 197.087 363.987ZM205.762 364.06L203.943 370.024L202.734 369.655L204.892 362.58L206.069 362.939L205.762 364.06ZM208.323 363.584L207.974 364.706C207.88 364.654 207.788 364.612 207.698 364.579C207.614 364.544 207.515 364.509 207.401 364.475C207.122 364.39 206.863 364.358 206.623 364.38C206.382 364.402 206.164 364.469 205.968 364.581C205.772 364.692 205.597 364.844 205.444 365.035C205.296 365.224 205.169 365.442 205.065 365.692L204.665 365.784C204.795 365.357 204.959 364.968 205.156 364.619C205.358 364.271 205.592 363.98 205.858 363.747C206.126 363.509 206.422 363.352 206.746 363.274C207.075 363.193 207.432 363.212 207.815 363.329C207.902 363.355 207.999 363.397 208.106 363.453C208.214 363.505 208.286 363.549 208.323 363.584ZM210.204 365.737L208.475 371.406L207.258 371.035L209.416 363.96L210.567 364.311L210.204 365.737ZM209.387 367.525L208.831 367.333C208.983 366.851 209.182 366.423 209.429 366.051C209.677 365.674 209.968 365.37 210.301 365.138C210.634 364.906 211.004 364.761 211.412 364.705C211.821 364.644 212.261 364.685 212.732 364.829C213.063 364.93 213.354 365.071 213.604 365.252C213.855 365.428 214.052 365.648 214.196 365.911C214.34 366.174 214.42 366.48 214.438 366.828C214.455 367.177 214.396 367.573 214.261 368.018L212.823 372.732L211.613 372.363L213.033 367.708C213.146 367.337 213.173 367.021 213.115 366.761C213.061 366.501 212.935 366.287 212.739 366.117C212.545 365.943 212.295 365.81 211.989 365.717C211.632 365.608 211.314 365.58 211.036 365.633C210.758 365.687 210.513 365.802 210.301 365.981C210.089 366.159 209.907 366.382 209.754 366.65C209.606 366.915 209.484 367.206 209.387 367.525ZM214.174 368.256L213.287 368.257C213.41 367.87 213.587 367.517 213.818 367.197C214.053 366.878 214.331 366.615 214.652 366.408C214.977 366.202 215.338 366.071 215.736 366.016C216.135 365.957 216.559 365.996 217.008 366.133C217.388 366.249 217.708 366.401 217.969 366.59C218.235 366.781 218.436 367.012 218.573 367.282C218.716 367.549 218.79 367.86 218.796 368.215C218.802 368.569 218.738 368.969 218.602 369.413L217.184 374.062L215.968 373.691L217.39 369.029C217.511 368.633 217.541 368.306 217.481 368.05C217.427 367.79 217.3 367.582 217.1 367.426C216.906 367.266 216.654 367.14 216.344 367.045C216.078 366.964 215.829 366.938 215.596 366.967C215.363 366.996 215.153 367.07 214.964 367.189C214.777 367.303 214.615 367.451 214.478 367.634C214.346 367.817 214.244 368.025 214.174 368.256ZM223.555 374.684L224.666 371.042C224.751 370.763 224.768 370.503 224.718 370.264C224.672 370.022 224.556 369.81 224.368 369.629C224.18 369.447 223.923 369.307 223.596 369.207C223.291 369.114 223.007 369.085 222.744 369.119C222.486 369.154 222.265 369.237 222.082 369.367C221.904 369.499 221.785 369.663 221.725 369.859L220.516 369.49C220.593 369.237 220.734 369.006 220.941 368.798C221.148 368.589 221.404 368.422 221.709 368.296C222.02 368.167 222.365 368.096 222.746 368.083C223.132 368.067 223.538 368.125 223.965 368.255C224.48 368.412 224.906 368.637 225.246 368.931C225.589 369.227 225.818 369.585 225.933 370.006C226.053 370.424 226.033 370.896 225.872 371.424L224.867 374.719C224.795 374.955 224.738 375.211 224.696 375.489C224.659 375.768 224.652 376.016 224.676 376.233L224.644 376.338L223.382 375.953C223.364 375.795 223.373 375.595 223.408 375.353C223.445 375.107 223.494 374.884 223.555 374.684ZM224.704 371.668L224.458 372.522L223.235 372.149C222.891 372.044 222.575 371.978 222.287 371.953C222.001 371.922 221.75 371.934 221.533 371.987C221.317 372.04 221.136 372.135 220.989 372.271C220.844 372.403 220.738 372.578 220.672 372.796C220.604 373.019 220.592 373.237 220.637 373.45C220.681 373.664 220.787 373.856 220.954 374.026C221.127 374.193 221.362 374.322 221.658 374.412C222.029 374.525 222.38 374.547 222.711 374.476C223.042 374.406 223.325 374.282 223.56 374.106C223.799 373.931 223.958 373.739 224.036 373.529L224.375 374.269C224.289 374.443 224.144 374.62 223.941 374.801C223.738 374.982 223.492 375.141 223.203 375.277C222.919 375.409 222.602 375.496 222.252 375.537C221.907 375.574 221.542 375.535 221.159 375.418C220.679 375.271 220.287 375.049 219.983 374.752C219.682 374.455 219.48 374.119 219.375 373.744C219.276 373.366 219.286 372.981 219.406 372.589C219.521 372.21 219.697 371.899 219.933 371.656C220.171 371.409 220.458 371.233 220.795 371.126C221.134 371.015 221.515 370.969 221.938 370.988C222.361 371.008 222.814 371.091 223.298 371.239L224.704 371.668ZM231.419 370.671L231.135 371.6L227.31 370.433L227.594 369.505L231.419 370.671ZM229.413 368.18L230.622 368.549L228.474 375.591C228.401 375.831 228.383 376.023 228.42 376.167C228.457 376.312 228.528 376.422 228.634 376.497C228.74 376.572 228.86 376.63 228.995 376.672C229.095 376.702 229.203 376.725 229.317 376.741C229.437 376.754 229.527 376.763 229.588 376.767L229.293 377.756C229.188 377.757 229.053 377.747 228.888 377.725C228.726 377.709 228.536 377.668 228.318 377.602C228.022 377.511 227.767 377.369 227.555 377.176C227.342 376.982 227.204 376.726 227.139 376.406C227.081 376.083 227.123 375.686 227.267 375.215L229.413 368.18Z" fill="#142251"/>
<rect x="121.52" y="26.652" width="283.602" height="277.116" rx="11.5" transform="rotate(16.9633 121.52 26.652)" stroke="#989EB1"/>
</g>
</svg>
