<svg width="20" height="21" viewBox="0 0 20 21" fill="none" xmlns="http://www.w3.org/2000/svg">
<path d="M16.174 3.12319C15.3458 2.53271 14.1222 2.74556 13.485 3.72684L7.24605 13.3339C7.0847 13.5824 7.14018 13.8434 7.38863 14.0047C7.63708 14.1661 7.89808 14.1106 8.05943 13.8621L13.22 5.91554C13.5208 5.45236 14.1401 5.32071 14.6033 5.62151C15.0665 5.9223 15.1981 6.54163 14.8974 7.00482L9.73677 14.9514C8.97383 16.1262 7.47417 16.445 6.29935 15.6821C5.12453 14.9191 4.80577 13.4195 5.5687 12.2446L11.8076 2.63756C13.015 0.778377 15.4961 0.198861 17.3172 1.48211C19.1617 2.69351 19.7334 5.16356 18.4555 6.97869L11.1492 18.2294C9.46194 20.8275 6.1038 21.5413 3.50571 19.8541C0.907618 18.1668 0.193823 14.8087 1.88104 12.2106L8.11995 2.60353C8.42075 2.14034 9.04008 2.0087 9.50326 2.30949C9.96645 2.61029 10.0981 3.22962 9.79729 3.6928L3.55838 13.2999C2.47276 14.9716 2.92327 17.0911 4.59499 18.1767C6.26671 19.2623 8.38619 18.8118 9.47182 17.1401L16.7891 5.87255C16.797 5.8604 16.8051 5.84843 16.8135 5.83664C17.404 5.00849 17.1911 3.78489 16.2099 3.14764C16.1977 3.13975 16.1857 3.1316 16.174 3.12319Z" fill="#142251"/>
</svg>
