<svg width="48" height="48" viewBox="0 0 48 48" fill="none" xmlns="http://www.w3.org/2000/svg">
<path d="M24 8C15.1634 8 8 15.1634 8 24C8 32.8366 15.1634 40 24 40C32.8366 40 40 32.8366 40 24C40 15.1634 32.8366 8 24 8ZM4 24C4 12.9543 12.9543 4 24 4C35.0457 4 44 12.9543 44 24C44 35.0457 35.0457 44 24 44C12.9543 44 4 35.0457 4 24ZM15.5858 15.5858C16.3668 14.8047 17.6332 14.8047 18.4142 15.5858L24 21.1716L29.5858 15.5858C30.3668 14.8047 31.6332 14.8047 32.4142 15.5858C33.1953 16.3668 33.1953 17.6332 32.4142 18.4142L26.8284 24L32.4142 29.5858C33.1953 30.3668 33.1953 31.6332 32.4142 32.4142C31.6332 33.1953 30.3668 33.1953 29.5858 32.4142L24 26.8284L18.4142 32.4142C17.6332 33.1953 16.3668 33.1953 15.5858 32.4142C14.8047 31.6332 14.8047 30.3668 15.5858 29.5858L21.1716 24L15.5858 18.4142C14.8047 17.6332 14.8047 16.3668 15.5858 15.5858Z" fill="#989EB1"/>
</svg>
