<svg width="18" height="18" viewBox="0 0 18 18" fill="none" xmlns="http://www.w3.org/2000/svg">
<path d="M9 18C13.9706 18 18 13.9706 18 9C18 4.02944 13.9706 0 9 0C4.02944 0 0 4.02944 0 9C0 13.9706 4.02944 18 9 18Z" fill="#213887"/>
<path fill-rule="evenodd" clip-rule="evenodd" d="M4.07401 8.90521C6.69769 7.76211 8.44723 7.00851 9.32261 6.64441C11.822 5.60483 12.3414 5.42424 12.6799 5.41828C12.7543 5.41696 12.9208 5.43542 13.0286 5.52291C13.1197 5.59679 13.1447 5.6966 13.1567 5.76664C13.1687 5.83669 13.1836 5.99626 13.1718 6.12094C13.0363 7.54406 12.4503 10.9976 12.1521 12.5915C12.0259 13.2659 11.7775 13.4921 11.537 13.5142C11.0144 13.5623 10.6175 13.1688 10.1113 12.837C9.31918 12.3177 8.87169 11.9945 8.1028 11.4878C7.21422 10.9022 7.79025 10.5804 8.29665 10.0544C8.42918 9.91679 10.732 7.82223 10.7765 7.63222C10.7821 7.60845 10.7873 7.51987 10.7347 7.4731C10.682 7.42632 10.6044 7.44232 10.5483 7.45504C10.4689 7.47307 9.20346 8.30946 6.75207 9.96422C6.39289 10.2109 6.06755 10.331 5.77606 10.3247C5.45471 10.3178 4.83657 10.143 4.37704 9.99367C3.81342 9.81046 3.36546 9.71359 3.40447 9.40244C3.42478 9.24037 3.64797 9.07463 4.07401 8.90521Z" fill="white"/>
</svg>
