<svg width="18" height="20" viewBox="0 0 18 20" fill="none" xmlns="http://www.w3.org/2000/svg">
<path fill-rule="evenodd" clip-rule="evenodd" d="M9.03397 18.8879H9.03768C13.9791 18.8859 17.998 14.866 18 9.92566C18.0009 7.53096 17.0696 5.27924 15.3775 3.58525C13.6854 1.89118 11.4351 0.957822 9.0376 0.956787C4.09762 0.956787 0.0771069 4.97709 0.0751408 9.91859C0.0744683 11.4982 0.487165 13.04 1.27147 14.3992L0 19.0434L4.75108 17.7971C6.06013 18.5111 7.534 18.8874 9.03397 18.8879ZM13.2469 11.8553C13.4031 11.9308 13.5085 11.9818 13.5536 12.0569C13.6095 12.1503 13.6095 12.5987 13.423 13.1219C13.2363 13.6449 12.3417 14.1224 11.9114 14.1866C11.5256 14.2443 11.0374 14.2684 10.5009 14.0979C10.1757 13.9947 9.75859 13.8569 9.22431 13.6262C7.12492 12.7197 5.70617 10.6849 5.43803 10.3003C5.41924 10.2734 5.40611 10.2546 5.39878 10.2448L5.39697 10.2424C5.27846 10.0842 4.48438 9.02474 4.48438 7.92821C4.48438 6.89669 4.99108 6.35601 5.22431 6.10714C5.24029 6.09009 5.25498 6.07441 5.26815 6.06003C5.47341 5.83583 5.71603 5.77979 5.86531 5.77979C6.01459 5.77979 6.16404 5.78116 6.29452 5.78772C6.31061 5.78853 6.32736 5.78843 6.34467 5.78833C6.47517 5.78756 6.63787 5.78661 6.79837 6.17213C6.86011 6.32049 6.95046 6.54044 7.04574 6.77242C7.23844 7.24155 7.45135 7.7599 7.48881 7.83491C7.54481 7.947 7.58212 8.07773 7.50748 8.22725C7.49627 8.24967 7.48591 8.27083 7.47601 8.29104C7.41994 8.4055 7.3787 8.4897 7.28355 8.6008C7.24613 8.64449 7.20746 8.69158 7.16879 8.73868C7.09175 8.8325 7.01471 8.92632 6.94763 8.99315C6.83552 9.10482 6.71882 9.22597 6.84945 9.45017C6.98008 9.67436 7.42951 10.4077 8.09524 11.0015C8.81087 11.6398 9.43284 11.9096 9.74811 12.0463C9.80967 12.073 9.85954 12.0947 9.89613 12.113C10.12 12.2251 10.2506 12.2064 10.3813 12.0569C10.5119 11.9075 10.9411 11.403 11.0903 11.1789C11.2396 10.9548 11.3889 10.9921 11.5942 11.0668C11.7995 11.1416 12.9005 11.6833 13.1244 11.7954C13.1681 11.8172 13.209 11.837 13.2469 11.8553Z" fill="#213887"/>
</svg>
