<svg width="32" height="28" viewBox="0 0 32 28" fill="none" xmlns="http://www.w3.org/2000/svg">
<path d="M16.5858 0.585786C17.3668 -0.195262 18.6332 -0.195262 19.4142 0.585787L31.4142 12.5858C31.7893 12.9609 32 13.4696 32 14C32 14.5304 31.7893 15.0391 31.4142 15.4142L19.4142 27.4142C18.6332 28.1953 17.3668 28.1953 16.5858 27.4142C15.8047 26.6332 15.8047 25.3668 16.5858 24.5858L25.1716 16L2 16C0.895431 16 0 15.1046 0 14C0 12.8954 0.89543 12 2 12L25.1716 12L16.5858 3.41421C15.8047 2.63316 15.8047 1.36683 16.5858 0.585786Z" fill="#142251"/>
</svg>
