<svg width="48" height="48" viewBox="0 0 48 48" fill="none" xmlns="http://www.w3.org/2000/svg">
<path d="M16 6C16 4.89543 16.8954 4 18 4H30C31.1046 4 32 4.89543 32 6H36C38.2091 6 40 7.79086 40 10V40C40 42.2091 38.2091 44 36 44H12C9.79086 44 8 42.2091 8 40V10C8 7.79086 9.79086 6 12 6H16ZM16 10H12V40H36V10H32V12C32 13.1046 31.1046 14 30 14H18C16.8954 14 16 13.1046 16 12V10ZM28 8H20V10H28V8ZM31.4142 21.5858C32.1953 22.3668 32.1953 23.6332 31.4142 24.4142L23.4142 32.4142C22.6332 33.1953 21.3668 33.1953 20.5858 32.4142L16.5858 28.4142C15.8047 27.6332 15.8047 26.3668 16.5858 25.5858C17.3668 24.8047 18.6332 24.8047 19.4142 25.5858L22 28.1716L28.5858 21.5858C29.3668 20.8047 30.6332 20.8047 31.4142 21.5858Z" fill="#142251"/>
</svg>
