<svg width="40" height="40" fill="none" xmlns="http://www.w3.org/2000/svg"><path d="M31.004.27A2 2 0 0132 2v8c2.37 0 4.5 1.033 5.962 2.666A7.977 7.977 0 0140 18c0 2.048-.772 3.92-2.038 5.334A7.985 7.985 0 0132 26v8a2 2 0 01-2.992 1.736L16 28.304V38a2 2 0 01-2 2H6a2 2 0 01-2-2V28a4 4 0 01-4-4V12a4 4 0 014-4h11.469L29.008.264a2 2 0 011.996.006zM16 24a2 2 0 01.992.264L28 30.553V5.446l-11.008 6.29A2 2 0 0116 12H4v12h12zm-8 4v8h4v-8H8zm24-6a3.985 3.985 0 002.982-1.334A3.978 3.978 0 0036 18a3.978 3.978 0 00-1.018-2.666A3.985 3.985 0 0032 14v8z" fill="#142251"/></svg>