<svg width="20" height="21" fill="none" xmlns="http://www.w3.org/2000/svg"><path d="M16.174 3.123c-.828-.59-2.052-.377-2.689.604l-6.239 9.607c-.161.248-.106.51.143.67.248.162.51.107.67-.142l5.161-7.946a1 1 0 011.677 1.089l-5.16 7.946a2.45 2.45 0 01-3.438.731 2.45 2.45 0 01-.73-3.437l6.239-9.607c1.207-1.86 3.688-2.44 5.51-1.156 1.844 1.212 2.415 3.682 1.137 5.497l-7.306 11.25c-1.687 2.599-5.045 3.312-7.643 1.625C.908 18.167.194 14.81 1.88 12.211l6.24-9.607a1 1 0 011.677 1.089L3.558 13.3c-1.085 1.672-.635 3.791 1.037 4.877 1.672 1.085 3.791.635 4.877-1.037l7.317-11.267a1.02 1.02 0 01.024-.036c.591-.829.378-2.052-.603-2.69a.884.884 0 01-.036-.024z" fill="#142251"/></svg>