<svg width="248" height="104" fill="none" xmlns="http://www.w3.org/2000/svg"><g filter="url(#filter0_i_0_2921)"><rect width="248" height="104" rx="52" fill="#fff"/><path fill="#fff" d="M36 36h32v32H36z"/><g filter="url(#filter1_i_0_2921)"><path d="M52.333 39c.505 0 .967.285 1.193.737l3.438 6.877 7.561 1.1a1.333 1.333 0 01.74 2.274l-5.504 5.365L61 62.918a1.333 1.333 0 01-1.94 1.393l-6.726-3.568-6.725 3.568a1.333 1.333 0 01-1.94-1.393l1.237-7.565-5.502-5.365a1.333 1.333 0 01.739-2.274l7.56-1.1 3.439-6.877A1.333 1.333 0 0152.333 39zm0 19.667l-2.732-7.356c-.195.39-.394-2.221-.826-2.158l6.826 4.658-8.337.118c.312.303-.092-2.047-.163-1.618l4.732 1.244 1.953.282c.391-.208-1.218 4.011-.828 4.218l4.975 2.64-2.832-.884c-.07-.43-2.811-.614-2.5-.918l8.868-8.929-9.636 9.703c-.431-.063 1.464-4.966 1.268-5.356l-.768 4.356z" fill="#142251"/></g><path fill="#fff" d="M72 36h32v32H72z"/><g filter="url(#filter2_i_0_2921)"><path d="M88.333 39c.505 0 .967.285 1.193.737l3.439 6.877 7.56 1.1a1.332 1.332 0 01.739 2.274l-5.503 5.365L97 62.918a1.333 1.333 0 01-1.94 1.393l-6.726-3.568-6.725 3.568a1.333 1.333 0 01-1.94-1.393l1.237-7.565-5.502-5.365a1.333 1.333 0 01.738-2.274l7.561-1.1 3.439-6.877A1.333 1.333 0 0188.333 39zm0 19.667l-2.732-7.356c-.195.39-.394-2.221-.826-2.158l6.826 4.658-8.337.118c.312.303-.092-2.047-.163-1.618l4.732 1.244 1.953.282c.391-.208-1.219 4.011-.828 4.218l4.975 2.64-2.832-.884c-.07-.43-2.811-.614-2.5-.918l8.868-8.929-9.636 9.703c-.431-.063 1.464-4.966 1.268-5.356l-.768 4.356z" fill="#142251"/></g><path fill="#fff" d="M108 36h32v32h-32z"/><g filter="url(#filter3_i_0_2921)"><path d="M124.333 39c.505 0 .967.285 1.193.737l3.438 6.877 7.561 1.1a1.332 1.332 0 01.739 2.274l-5.503 5.365 1.238 7.565a1.334 1.334 0 01-1.941 1.393l-6.725-3.568-6.725 3.568a1.332 1.332 0 01-1.94-1.393l1.237-7.565-5.502-5.365a1.332 1.332 0 01.738-2.274l7.561-1.1 3.439-6.877a1.333 1.333 0 011.192-.737zm0 19.667l-2.732-7.356c-.195.39-.394-2.221-.826-2.158l6.826 4.658-8.337.118c.312.303-.092-2.047-.163-1.618l4.732 1.244 1.953.282c.391-.208-1.219 4.011-.828 4.218l4.975 2.64-2.832-.884c-.07-.43-2.811-.614-2.5-.918l8.868-8.929-9.636 9.703c-.431-.063 1.464-4.966 1.268-5.356l-.768 4.356z" fill="#142251"/></g><path fill="#fff" d="M144 36h32v32h-32z"/><g filter="url(#filter4_i_0_2921)"><path d="M160.333 39c.505 0 .967.285 1.193.737l3.438 6.877 7.561 1.1a1.332 1.332 0 01.739 2.274l-5.503 5.365 1.238 7.565a1.334 1.334 0 01-1.941 1.393l-6.725-3.568-6.725 3.568a1.332 1.332 0 01-1.94-1.393l1.237-7.565-5.502-5.365a1.332 1.332 0 01.738-2.274l7.561-1.1 3.439-6.877a1.333 1.333 0 011.192-.737zm0 19.667l-2.732-7.356c-.195.39-.394-2.221-.826-2.158l6.826 4.658-8.337.118c.312.303-.092-2.047-.163-1.618l4.732 1.244 1.953.282c.391-.208-1.219 4.011-.828 4.218l4.975 2.64-2.832-.884c-.07-.43-2.811-.614-2.5-.918l8.868-8.929-9.636 9.703c-.431-.063 1.464-4.966 1.268-5.356l-.768 4.356z" fill="#142251"/></g><path fill="#fff" d="M180 36h32v32h-32z"/><g filter="url(#filter5_i_0_2921)"><path d="M196.333 39c.505 0 .967.285 1.193.737l3.438 6.877 7.561 1.1a1.332 1.332 0 01.739 2.274l-5.503 5.365 1.238 7.565a1.334 1.334 0 01-1.941 1.393l-6.725-3.568-6.725 3.568a1.332 1.332 0 01-1.94-1.393l1.237-7.565-5.502-5.365a1.332 1.332 0 01.738-2.274l7.561-1.1 3.439-6.877a1.333 1.333 0 011.192-.737zm0 19.667l-2.732-7.356c-.195.39-.394-2.221-.826-2.158l6.826 4.658-8.337.118c.312.303-.092-2.047-.163-1.618l4.732 1.244 1.953.282c.391-.208-1.219 4.011-.828 4.218l4.975 2.64-2.832-.884c-.07-.43-2.811-.614-2.5-.918l8.868-8.929-9.636 9.703c-.431-.063 1.464-4.966 1.268-5.356l-.768 4.356z" fill="#142251"/></g></g><defs><filter id="filter0_i_0_2921" x="0" y="0" width="248" height="104" filterUnits="userSpaceOnUse" color-interpolation-filters="sRGB"><feFlood flood-opacity="0" result="BackgroundImageFix"/><feBlend in="SourceGraphic" in2="BackgroundImageFix" result="shape"/><feColorMatrix in="SourceAlpha" values="0 0 0 0 0 0 0 0 0 0 0 0 0 0 0 0 0 0 127 0" result="hardAlpha"/><feOffset/><feGaussianBlur stdDeviation="6"/><feComposite in2="hardAlpha" operator="arithmetic" k2="-1" k3="1"/><feColorMatrix values="0 0 0 0 0.894118 0 0 0 0 0.905882 0 0 0 0 0.945098 0 0 0 1 0"/><feBlend in2="shape" result="effect1_innerShadow_0_2921"/></filter><filter id="filter1_i_0_2921" x="39" y="39" width="26.667" height="25.467" filterUnits="userSpaceOnUse" color-interpolation-filters="sRGB"><feFlood flood-opacity="0" result="BackgroundImageFix"/><feBlend in="SourceGraphic" in2="BackgroundImageFix" result="shape"/><feColorMatrix in="SourceAlpha" values="0 0 0 0 0 0 0 0 0 0 0 0 0 0 0 0 0 0 127 0" result="hardAlpha"/><feOffset/><feGaussianBlur stdDeviation="2"/><feComposite in2="hardAlpha" operator="arithmetic" k2="-1" k3="1"/><feColorMatrix values="0 0 0 0 1 0 0 0 0 1 0 0 0 0 1 0 0 0 1 0"/><feBlend in2="shape" result="effect1_innerShadow_0_2921"/></filter><filter id="filter2_i_0_2921" x="75" y="39" width="26.667" height="25.467" filterUnits="userSpaceOnUse" color-interpolation-filters="sRGB"><feFlood flood-opacity="0" result="BackgroundImageFix"/><feBlend in="SourceGraphic" in2="BackgroundImageFix" result="shape"/><feColorMatrix in="SourceAlpha" values="0 0 0 0 0 0 0 0 0 0 0 0 0 0 0 0 0 0 127 0" result="hardAlpha"/><feOffset/><feGaussianBlur stdDeviation="2"/><feComposite in2="hardAlpha" operator="arithmetic" k2="-1" k3="1"/><feColorMatrix values="0 0 0 0 1 0 0 0 0 1 0 0 0 0 1 0 0 0 1 0"/><feBlend in2="shape" result="effect1_innerShadow_0_2921"/></filter><filter id="filter3_i_0_2921" x="111" y="39" width="26.667" height="25.467" filterUnits="userSpaceOnUse" color-interpolation-filters="sRGB"><feFlood flood-opacity="0" result="BackgroundImageFix"/><feBlend in="SourceGraphic" in2="BackgroundImageFix" result="shape"/><feColorMatrix in="SourceAlpha" values="0 0 0 0 0 0 0 0 0 0 0 0 0 0 0 0 0 0 127 0" result="hardAlpha"/><feOffset/><feGaussianBlur stdDeviation="2"/><feComposite in2="hardAlpha" operator="arithmetic" k2="-1" k3="1"/><feColorMatrix values="0 0 0 0 1 0 0 0 0 1 0 0 0 0 1 0 0 0 1 0"/><feBlend in2="shape" result="effect1_innerShadow_0_2921"/></filter><filter id="filter4_i_0_2921" x="147" y="39" width="26.667" height="25.467" filterUnits="userSpaceOnUse" color-interpolation-filters="sRGB"><feFlood flood-opacity="0" result="BackgroundImageFix"/><feBlend in="SourceGraphic" in2="BackgroundImageFix" result="shape"/><feColorMatrix in="SourceAlpha" values="0 0 0 0 0 0 0 0 0 0 0 0 0 0 0 0 0 0 127 0" result="hardAlpha"/><feOffset/><feGaussianBlur stdDeviation="2"/><feComposite in2="hardAlpha" operator="arithmetic" k2="-1" k3="1"/><feColorMatrix values="0 0 0 0 1 0 0 0 0 1 0 0 0 0 1 0 0 0 1 0"/><feBlend in2="shape" result="effect1_innerShadow_0_2921"/></filter><filter id="filter5_i_0_2921" x="183" y="39" width="26.667" height="25.467" filterUnits="userSpaceOnUse" color-interpolation-filters="sRGB"><feFlood flood-opacity="0" result="BackgroundImageFix"/><feBlend in="SourceGraphic" in2="BackgroundImageFix" result="shape"/><feColorMatrix in="SourceAlpha" values="0 0 0 0 0 0 0 0 0 0 0 0 0 0 0 0 0 0 127 0" result="hardAlpha"/><feOffset/><feGaussianBlur stdDeviation="2"/><feComposite in2="hardAlpha" operator="arithmetic" k2="-1" k3="1"/><feColorMatrix values="0 0 0 0 1 0 0 0 0 1 0 0 0 0 1 0 0 0 1 0"/><feBlend in2="shape" result="effect1_innerShadow_0_2921"/></filter></defs></svg>